<?xml version="1.0" encoding="utf-8"?>
<!-- Generator: Adobe Illustrator 25.1.0, SVG Export Plug-In . SVG Version: 6.00 Build 0)  -->
<svg version="1.1" id="Layer_1" xmlns="http://www.w3.org/2000/svg" x="0px" y="0px"
     viewBox="0 0 200 206" style="enable-background:new 0 0 200 206;" xml:space="preserve">
<style type="text/css">
	.st0{fill:#FFFFFF;}
</style>
    <g>
	<path class="st0" d="M152.5,81.78c-9.72,9.73-19.08,19.09-28.44,28.46c-9.43,9.44-18.85,18.87-27.96,27.99
		c-10.81-10.83-21.09-21.14-31.22-31.28c3.39-3.51,7.02-7.26,11.58-11.97c6.84,6.92,13.64,13.81,20.7,20.96
		c7.69-7.79,15.35-15.58,23.07-23.33c7.78-7.82,15.61-15.59,23.38-23.34c-21.24-23.69-57.62-26.42-82.33-6.66
		c-24.97,19.97-30.16,56.3-11.74,82.13c18.95,26.58,54.58,33.63,82.1,16.24C157.92,144.38,167.55,108.65,152.5,81.78z"/>
        <path d="M0.03,96.07C3.41,55.46,36.09,22,75.82,12.52c4.46-1.06,8.58-2.03,13.3-2.88c8.76-0.89,13.04-0.78,20.33,0.37
		c6.01,1.02,11.64,2.31,17.34,3.92c44.79,12.67,74.95,55.29,72.06,101.68c-2.88,46.36-38.09,85.08-83.95,92.19
		c-4.87,0.76-9.82,0.95-15.09,1.45c0-4.3,0-8.03,0-12.3c30.06-1.23,54.48-13.58,71.77-38.58c12.58-18.2,17.02-38.58,14.36-60.5
		c-5.12-42.13-42.07-75.02-85.39-75.57c-49.21-0.63-88.54,39.35-88.72,87.22c-3.94,0-7.89,0-11.84,0"/>
        <path d="M152.5,81.78c15.05,26.87,5.42,62.6-20.85,79.19c-27.53,17.38-63.15,10.33-82.1-16.24
		c-18.42-25.84-13.23-62.16,11.74-82.13c24.71-19.76,61.09-17.03,82.33,6.66c-7.77,7.75-15.6,15.52-23.38,23.34
		c-7.71,7.75-15.37,15.55-23.07,23.33c-7.07-7.15-13.86-14.04-20.7-20.96c-4.56,4.72-8.19,8.47-11.58,11.97
		c10.12,10.14,20.41,20.45,31.22,31.28c9.11-9.11,18.53-18.55,27.96-27.99C133.42,100.87,142.78,91.51,152.5,81.78z"/>
</g>
</svg>
