<svg id="Layer_1" data-name="Layer 1" xmlns="http://www.w3.org/2000/svg" viewBox="0 0 354.64 297.95"><defs><style>.cls-1{fill:#2a2e43;}</style></defs><path class="cls-1" d="M199.9,285H165.7a3.74,3.74,0,0,1-3.73-3.73H68.13v11.07A5.59,5.59,0,0,0,73.71,298H291.89a5.59,5.59,0,0,0,5.57-5.57V281.31H203.62A3.74,3.74,0,0,1,199.9,285Z"/><path class="cls-1" d="M168.7,114.78H94.6L81,101.13H0v28H168.7Z"/><path class="cls-1" d="M295.84,73.66,285,62.82H220.75V85.06H354.64V73.66Z"/><path class="cls-1" d="M220.75,150.4H168.7V133.11H0V242a3.56,3.56,0,0,0,3.57,3.56H68.14v26.39H297.46V177.42h54.35a2.83,2.83,0,0,0,2.83-2.84V88.2H220.75ZM287.7,266.73H77.9V245.52h87.22A3.57,3.57,0,0,0,168.7,242V155.57h52.05v19a2.84,2.84,0,0,0,2.84,2.84H287.7Z"/></svg>