<svg id="Layer_1" data-name="Layer 1" xmlns="http://www.w3.org/2000/svg" viewBox="0 0 244.77 291.35"><defs><style>.cls-1{fill:#2a2e43;}</style></defs><path class="cls-1" d="M63.55,28.32a2.27,2.27,0,0,0-2-2.48H25.05a2.28,2.28,0,0,0-2,2.48V73.94a2.28,2.28,0,0,0,2,2.48H61.57a2.27,2.27,0,0,0,2-2.48Z"/><path class="cls-1" d="M229.86,28.32a2.28,2.28,0,0,0-2-2.48H84.06a2.28,2.28,0,0,0-2,2.48V73.94a2.28,2.28,0,0,0,2,2.48H227.87a2.28,2.28,0,0,0,2-2.48Z"/><path class="cls-1" d="M63.55,124a2.27,2.27,0,0,0-2-2.48H25.05a2.28,2.28,0,0,0-2,2.48v45.62a2.28,2.28,0,0,0,2,2.48H61.57a2.27,2.27,0,0,0,2-2.48Z"/><path class="cls-1" d="M63.55,219.74a2.27,2.27,0,0,0-2-2.48H25.05a2.28,2.28,0,0,0-2,2.48v45.62a2.28,2.28,0,0,0,2,2.48H61.57a2.27,2.27,0,0,0,2-2.48Z"/><path class="cls-1" d="M229.86,124a2.28,2.28,0,0,0-2-2.48H84.06a2.28,2.28,0,0,0-2,2.48v45.62a2.28,2.28,0,0,0,2,2.48H227.87a2.28,2.28,0,0,0,2-2.48Z"/><path class="cls-1" d="M229.86,219.74a2.28,2.28,0,0,0-2-2.48H84.06a2.28,2.28,0,0,0-2,2.48v45.62a2.28,2.28,0,0,0,2,2.48H227.87a2.28,2.28,0,0,0,2-2.48Z"/></svg>