<svg id="Layer_1" data-name="Layer 1" xmlns="http://www.w3.org/2000/svg" viewBox="0 0 317.06 317.05"><defs><style>.cls-1{fill:#2a2e43;}</style></defs><path class="cls-1" d="M293.72,135.19A23.35,23.35,0,0,0,271,153.07H234.31A75.68,75.68,0,0,0,216,108.82l26-26a23.32,23.32,0,1,0-7.72-7.71l-26,26A75.62,75.62,0,0,0,164,82.75V46a23.34,23.34,0,1,0-10.91,0V82.75a75.68,75.68,0,0,0-44.25,18.36l-26-26a23.33,23.33,0,1,0-7.71,7.71l26,26a75.68,75.68,0,0,0-18.36,44.25H46A23.34,23.34,0,1,0,46,164H82.75a75.62,75.62,0,0,0,18.36,44.25l-26,26a23.35,23.35,0,1,0,7.71,7.72l26-26a75.68,75.68,0,0,0,44.25,18.36V271A23.34,23.34,0,1,0,164,271V234.31A75.62,75.62,0,0,0,208.23,216l26,26a23.33,23.33,0,1,0,7.72-7.72l-26-26A75.62,75.62,0,0,0,234.31,164H271a23.34,23.34,0,1,0,22.69-28.79Z"/></svg>