<!--
  - Copyright 2020 (c) Neo-OOH - All Rights Reserved
  - Unauthorized copying of this file, via any medium is strictly prohibited
  - Proprietary and confidential
  - Written by Valentin Dufois <vdufois@neo-ooh.com>
  -
  - @neo/api - home.svg
  -->

<svg id="Layer_1" data-name="Layer 1" xmlns="http://www.w3.org/2000/svg" viewBox="0 0 161.27 254.88"><defs><style>.cls-1,.cls-2{fill:#2a2e43;}.cls-1{fill-rule:evenodd;}</style></defs><path class="cls-1" d="M138.45,169.06c.15,1.71.24,3.44.24,5.19a58,58,0,1,1-29.92-50.79l14.46-17.66A80.51,80.51,0,1,0,156.53,147Z"/><path class="cls-2" d="M84.55,214.1a2.07,2.07,0,0,1-1.42-.57L33.91,168.12a2.28,2.28,0,0,1-.14-3.23L49,148.39a2.29,2.29,0,0,1,3.22-.13l26.43,24.38a4.27,4.27,0,0,0,6.26-.44l51.15-62.45a2.3,2.3,0,0,1,3.21-.32l17.37,14.23a2.25,2.25,0,0,1,.82,1.53,2.3,2.3,0,0,1-.5,1.68l-70.8,86.45a2.05,2.05,0,0,1-1.6.78Z"/><path class="cls-2" d="M42.83,88.5V60.78a37.81,37.81,0,1,1,75.61,0V88.5a93.6,93.6,0,0,1,23,14.44V60.78a60.78,60.78,0,1,0-121.55,0v42.16A93.41,93.41,0,0,1,42.83,88.5Z"/></svg>
