<?xml version="1.0" encoding="utf-8"?>
<!-- Generator: Adobe Illustrator 24.1.2, SVG Export Plug-In . SVG Version: 6.00 Build 0)  -->
<svg version="1.1" id="Layer_2" xmlns="http://www.w3.org/2000/svg" x="0px" y="0px"
     viewBox="0 0 382.3 305.8" style="enable-background:new 0 0 382.3 305.8;" xml:space="preserve">
<g>
	<path d="M257.7,55.7c1,0,1.7,0,2.5,0c18.6,0,37.1-0.5,55.7,0.1c18.1,0.6,33.5,11,36.3,32.3c0.3,2,0.3,4,0.3,5.9
		c0,42.7,0.4,85.4-0.1,128.1c-0.3,21.4-8.7,39.4-28,50.6c-9.5,5.6-20,8.3-31.1,8.3c-62.9,0-125.9,0.1-188.8-0.1
		c-15.3,0-29.3-4.4-41-14.7c-10.8-9.5-16.6-21.7-18.4-35.8c-0.4-3.4-0.6-6.9-0.6-10.4c0-62.1,0-124.2-0.1-186.3
		c0-3.9,0.8-7.4,3.8-10.1c2.1-2,4.6-3,7.5-3.1c0.8,0,1.5,0,2.3,0c59.9,0,119.7,0,179.6,0c2.4,0,4.9-0.2,7.3-0.3
		c5.9-0.4,13.3,4.9,13,11.9c-0.3,7.1-0.1,14.3-0.1,21.4C257.7,54.1,257.7,54.8,257.7,55.7z M245.1,257.4c-1.6-2.7-3.1-5.1-4.5-7.6
		c-5-9.3-6.8-19.3-6.8-29.7c0-57.7,0-115.5,0-173.2c0-0.9-0.1-1.7-0.1-2.5c-55.4,0-110.5,0-165.7,0c0,0.9,0,1.7,0,2.5
		c0,57.9,0,115.7,0,173.6c0,2.8,0.1,5.7,0.4,8.5c0.8,7.5,3.2,14.4,9.2,19.3c7.8,6.4,17,9.2,27,9.2c46.1,0,92.2,0,138.3,0
		C243.6,257.4,244.3,257.4,245.1,257.4z M257.7,79.4c0,0.8,0,1.5,0,2.2c0,46.2,0,92.3,0,138.5c0,2.9,0.1,5.8,0.4,8.6
		c1,9.2,4.8,16.8,13,21.8c12.5,7.5,25.5,8.7,39,2.7c8.1-3.6,14.6-8.9,16.8-17.8c1.1-4.3,1.7-8.9,1.7-13.3c0.1-43,0.1-85.9,0-128.9
		c0-2.7-0.9-5.4-1.8-8c-1.2-3.6-3.9-5.4-7.8-5.5c-2.1,0-4.2,0-6.3,0.2c-2,0.2-3.6,1.2-4.7,3c-1.8,3.1-3,6.4-3,10.2
		c0,38.2,0,76.4,0,114.6c0,1,0,1.9,0,2.9c-0.4,5.7-4.7,10.4-10.2,11.1c-6,0.7-11.2-2.6-12.9-8.4c-0.5-1.6-0.6-3.3-0.6-4.9
		c0-34.2-0.1-68.5,0-102.7c0-8.8-1-17.7,2.2-26.5C274.8,79.4,266.4,79.4,257.7,79.4z"/>
    <path d="M151,67.9c19.3,0,38.7,0,58,0c8.4,0,13.1,4.8,13.1,13.1c0,7.3,0,14.5,0,21.8s-5.1,12.4-12.3,12.4c-39.2,0-78.3,0-117.5,0
		c-7.3,0-12.3-5-12.3-12.4c0-7.6,0-15.2,0-22.7C80,73,84.9,68,92,67.9c8.9-0.1,17.7,0,26.6,0C129.4,67.9,140.2,67.9,151,67.9z"/>
    <path d="M185.4,210c8.3,0,16.6-0.1,24.8,0c8.6,0.1,14.1,8.2,11.2,16.1c-1.7,4.6-6.1,7.6-11.4,7.6c-14.6,0-29.1,0-43.7,0
		c-1.7,0-3.3,0.1-5,0.1c-6.7,0.1-12.1-5.2-12.1-11.9c-0.1-6.7,5.2-11.9,11.9-11.9C169.3,210,177.3,210,185.4,210z"/>
    <path d="M185.6,174.4c8.3,0,16.6-0.1,24.8,0c9.3,0.1,14.9,9.9,10.2,17.8c-2.5,4.3-6.5,6-11.3,6c-15,0-30,0-45.1,0
		c-1.9,0-3.9,0.1-5.7-0.3c-6.1-1.2-9.9-6.9-9.2-13.2c0.6-5.8,5.8-10.3,11.8-10.3C169.3,174.4,177.4,174.4,185.6,174.4L185.6,174.4z"
    />
    <path d="M185.6,138.9c8.3,0,16.7-0.1,25,0c5.9,0.1,10.8,4.6,11.5,10.4c0.7,5.9-3,11.4-8.9,12.9c-1.4,0.3-2.8,0.4-4.2,0.4
		c-14.8,0-29.6,0-44.5,0c-1.9,0-3.7,0.2-5.6-0.1c-6.2-1-10.3-6.6-9.8-12.9c0.6-6.1,5.6-10.6,11.9-10.6
		C169.3,138.9,177.5,138.9,185.6,138.9L185.6,138.9z"/>
    <path d="M108.4,198.3c-6,0-12.1,0-18.1,0c-6.7,0-12.2-5.3-12.2-12c0-6.6,5.3-11.9,12.1-11.9c12.3,0,24.6,0,37,0
		c6.2,0,10.9,4,12,9.9c1.2,6.3-3.2,12.6-9.5,13.6c-1.2,0.2-2.4,0.3-3.6,0.3C120.1,198.2,114.3,198.2,108.4,198.3
		C108.4,198.2,108.4,198.3,108.4,198.3z"/>
    <path d="M108.5,138.9c6.3,0,12.7-0.1,19.1,0c6.1,0.1,11,4.6,11.7,10.6c0.7,5.7-3.2,11.2-9,12.6c-1.3,0.3-2.7,0.4-4,0.4
		c-11,0-21.9,0-32.9,0c-1.8,0-3.6,0.2-5.4-0.1c-6.1-1-10.4-6.7-9.9-12.7c0.6-6.1,5.7-10.8,11.9-10.8
		C96.2,138.9,102.4,138.9,108.5,138.9L108.5,138.9z"/>
    <path d="M111.4,210c5.3,0,10.7-0.1,16,0c6.2,0.1,10.9,4.2,11.8,10.3c0.8,5.5-2.6,11-8.1,12.7c-1.3,0.4-2.6,0.6-4,0.6
		c-10.4,0.1-20.8,0.1-31.2,0.1c-6.6,0-12-5.5-12-12c0.1-6.6,5.3-11.8,12-11.8C101.2,210,106.3,210,111.4,210z"/>
</g>
</svg>
