<!--
  - Copyright 2020 (c) Neo-OOH - All Rights Reserved
  - Unauthorized copying of this file, via any medium is strictly prohibited
  - Proprietary and confidential
  - Written by Valentin Dufois <vdufois@neo-ooh.com>
  -
  - @neo/api - settings.svg
  -->

<svg id="Layer_1" data-name="Layer 1" xmlns="http://www.w3.org/2000/svg" viewBox="0 0 287.87 287.87"><defs><style>.cls-1{fill:#2a2e43;}</style></defs><path class="cls-1" d="M286,120.42l-28.67-5.73a116,116,0,0,0-12.55-30.25L261,60.1a2.32,2.32,0,0,0-.29-2.92l-30-30a2.32,2.32,0,0,0-2.92-.29L203.43,43.07a116.33,116.33,0,0,0-30.25-12.54L167.45,1.86A2.32,2.32,0,0,0,165.18,0H122.69a2.32,2.32,0,0,0-2.27,1.86l-5.73,28.67A116.33,116.33,0,0,0,84.44,43.07L60.1,26.85a2.32,2.32,0,0,0-2.92.29l-30,30a2.3,2.3,0,0,0-.29,2.92L43.07,84.44a116.7,116.7,0,0,0-12.55,30.25L1.86,120.42A2.32,2.32,0,0,0,0,122.69v42.49a2.32,2.32,0,0,0,1.86,2.27l28.66,5.73a116.7,116.7,0,0,0,12.55,30.25L26.85,227.77a2.3,2.3,0,0,0,.29,2.92l30,30a2.32,2.32,0,0,0,2.92.29l24.34-16.23a116,116,0,0,0,30.25,12.55L120.42,286a2.32,2.32,0,0,0,2.27,1.86h42.49a2.32,2.32,0,0,0,2.27-1.86l5.73-28.67a116,116,0,0,0,30.25-12.55L227.77,261a2.32,2.32,0,0,0,2.92-.29l30-30a2.32,2.32,0,0,0,.29-2.92l-16.23-24.34a116,116,0,0,0,12.55-30.25L286,167.45a2.32,2.32,0,0,0,1.86-2.27V122.69A2.32,2.32,0,0,0,286,120.42ZM143.93,211A67.11,67.11,0,1,1,211,143.93,67.1,67.1,0,0,1,143.93,211Z"/></svg>
