<!--
  - Copyright 2020 (c) Neo-OOH - All Rights Reserved
  - Unauthorized copying of this file, via any medium is strictly prohibited
  - Proprietary and confidential
  - Written by Valentin Dufois <vdufois@neo-ooh.com>
  -
  - @neo/api - users.svg
  -->

<svg id="Layer_1" data-name="Layer 1" xmlns="http://www.w3.org/2000/svg" viewBox="0 0 444 375.73">
    <defs>
        <style>.cls-1{fill:#2a2e43;}</style>
    </defs>
    <circle class="cls-1" cx="222" cy="65.02" r="31.54" transform="translate(2.17 137.03) rotate(-34.46)"/>
    <path class="cls-1"
          d="M180.87,142.47a66.56,66.56,0,0,0,82.26,0,30.42,30.42,0,0,0,11.15-28.29h0A11.36,11.36,0,0,0,263,103.34l-20.94-2a41.35,41.35,0,0,1-40,0l-20.94,2a11.36,11.36,0,0,0-11.32,10.83h0A30.42,30.42,0,0,0,180.87,142.47Z"/>
    <circle class="cls-1" cx="89.97" cy="260.83" r="31.54" transform="translate(-58.27 28.12) rotate(-13.47)"/>
    <path class="cls-1"
          d="M142.24,310h0a11.33,11.33,0,0,0-11.31-10.83l-20.94-2a41.44,41.44,0,0,1-40,0l-20.94,2A11.33,11.33,0,0,0,37.69,310h0a30.42,30.42,0,0,0,11.15,28.29,66.5,66.5,0,0,0,82.25,0A30.37,30.37,0,0,0,142.24,310Z"/>
    <circle class="cls-1" cx="354.03" cy="260.83" r="31.54" transform="translate(-64.31 125.34) rotate(-18.43)"/>
    <path class="cls-1"
          d="M354,195.8a89.44,89.44,0,0,0-39.32,9.06L282.15,156.8a90,90,0,1,0-120.3,0l-32.56,48.06a90,90,0,1,0,50.12,90.59h85.18A90,90,0,1,0,354,195.8ZM145.68,215.18l31.86-47a89.79,89.79,0,0,0,88.92,0l31.86,47a90,90,0,0,0-33.73,60.91H179.41A90,90,0,0,0,145.68,215.18Z"/>
    <path class="cls-1"
          d="M406.31,310h0A11.33,11.33,0,0,0,395,299.15l-20.94-2a41.44,41.44,0,0,1-40.05,0l-20.94,2A11.33,11.33,0,0,0,301.76,310h0a30.37,30.37,0,0,0,11.15,28.29,66.5,66.5,0,0,0,82.25,0A30.42,30.42,0,0,0,406.31,310Z"/>
</svg>
