<?xml version="1.0" encoding="utf-8"?>
<!-- Generator: Adobe Illustrator 25.1.0, SVG Export Plug-In . SVG Version: 6.00 Build 0)  -->
<svg version="1.1" id="Layer_1" xmlns="http://www.w3.org/2000/svg" xmlns:xlink="http://www.w3.org/1999/xlink" x="0px" y="0px"
	 viewBox="0 0 824.61 631.07" style="enable-background:new 0 0 824.61 631.07;" xml:space="preserve">
<style type="text/css">
	.st0{fill:#FFFFFF;}
</style>
<g>
	<path class="st0" d="M322.2,384.62c-1.78,0.35-3.07,0.63-4.37,0.85c-61.16,10.29-103,71.81-90.01,132.35
		c11.45,53.35,56.46,89.51,111.83,89.55c110.49,0.08,220.99,0.06,331.48-0.05c7.8-0.01,15.66-0.65,23.39-1.73
		c83.03-11.6,139.01-95.36,118.18-176.65c-17.49-68.23-79.36-113.22-149.6-108.55c-9.24,0.61-18.4,2.37-28.06,3.66
		c-11.88-39.94-35.29-71.75-71.51-93.36c-36.22-21.6-75.4-27.62-116.51-18.83c-35.75,7.64-65.48,25.97-88.74,54.17
		C329.98,300.33,318.4,339.98,322.2,384.62z M229.03,400.17c7.71-6.82,14.65-13.87,22.52-19.65c7.87-5.78,16.2-11.5,25.19-15.05
		c9.64-3.81,12.94-8.92,14.2-19.48c7.29-61.18,38.11-107.96,89.81-141.18c1.07-0.69,2.07-1.47,3.13-2.22
		c-28.71-33.58-79.79-51.96-130.34-37.24c-49.57,14.43-86.9,59.64-91.34,109.12C156.7,335.7,191.91,381.42,229.03,400.17z
		 M488.52,107.3c-1.08-7.17-4.89-13.08-11.02-15.44c-7.34-2.82-13.79-0.85-19.18,4.5c-18.42,18.29-36.78,36.64-55.1,55.04
		c-7.24,7.27-7.55,16.81-0.96,23.57c6.63,6.8,16.61,6.64,23.96-0.66c18.78-18.64,37.56-37.27,56.07-56.18
		C485.11,115.26,486.48,110.95,488.52,107.3z M181.57,161.68c-1.16-2.14-2.48-6.69-5.4-9.68c-18.38-18.83-37.06-37.38-55.76-55.9
		c-7.18-7.11-16.87-7.06-23.67-0.31c-6.51,6.47-6.09,16.33,1.08,23.54c8.46,8.51,16.97,16.96,25.45,25.43
		c10.14,10.12,20.22,20.3,30.43,30.35c5.16,5.08,11.37,6.18,17.96,3.35C177.88,175.8,180.97,170.71,181.57,161.68z M111.33,484.81
		c1.95-1.11,6.41-2.56,9.4-5.5c18.76-18.46,37.27-37.17,55.62-56.03c2.4-2.46,4.18-6.12,4.88-9.51c1.4-6.8-2.13-13.09-8.08-16.26
		c-6.37-3.39-13.69-2.38-19.31,3.09c-8.71,8.48-17.24,17.15-25.84,25.75c-10.25,10.24-20.57,20.42-30.71,30.77
		c-5.01,5.11-6.38,11.25-3.4,17.92C96.72,481.41,101.84,484.62,111.33,484.81z M73.24,272.03c0-0.01,0-0.02,0-0.03
		c-13.15,0-26.29-0.03-39.44,0.01c-11.18,0.04-16.03,4.93-16.03,16c0,10.79,4.99,15.88,15.68,15.88
		c25.79,0.01,51.59,0.01,77.38-0.05c2.64-0.01,5.39-0.08,7.9-0.79c7.3-2.06,11.98-9.5,11-16.92c-1.08-8.19-7.05-13.89-15.55-14.04
		C100.54,271.86,86.89,272.03,73.24,272.03z M305.43,72.66c0-13.16,0.04-26.32-0.01-39.48c-0.04-10.03-6.48-17.09-15.55-17.17
		c-9.26-0.08-16.36,7.18-16.39,17.1c-0.07,25.99-0.07,51.98,0,77.97c0.02,10.25,6.68,17.37,15.99,17.41
		c9.27,0.04,15.9-7.09,15.95-17.34C305.48,98.31,305.43,85.48,305.43,72.66z"/>
	<path d="M322.2,384.62c-3.8-44.64,7.78-84.29,36.07-118.59c23.27-28.2,52.99-46.53,88.74-54.17c41.12-8.79,80.29-2.77,116.51,18.83
		c36.23,21.6,59.64,53.41,71.51,93.36c9.66-1.29,18.82-3.05,28.06-3.66c70.23-4.67,132.11,40.33,149.6,108.55
		c20.84,81.29-35.14,165.05-118.18,176.65c-7.73,1.08-15.59,1.73-23.39,1.73c-110.49,0.11-220.99,0.13-331.48,0.05
		c-55.37-0.04-100.38-36.2-111.83-89.55c-12.99-60.55,28.85-122.07,90.01-132.35C319.14,385.25,320.42,384.97,322.2,384.62z"/>
	<path d="M229.03,400.17c-37.12-18.75-72.33-64.47-66.83-125.71c4.44-49.48,41.77-94.69,91.34-109.12
		c50.55-14.72,101.63,3.67,130.34,37.24c-1.06,0.75-2.07,1.53-3.13,2.22c-51.7,33.22-82.52,80-89.81,141.18
		c-1.26,10.57-4.55,15.68-14.2,19.48c-8.99,3.55-17.32,9.26-25.19,15.05C243.68,386.3,236.74,393.35,229.03,400.17z"/>
	<path d="M488.52,107.3c-2.04,3.65-3.4,7.96-6.23,10.84c-18.51,18.9-37.29,37.54-56.07,56.18c-7.35,7.3-17.34,7.46-23.96,0.66
		c-6.58-6.76-6.28-16.29,0.96-23.57c18.32-18.39,36.68-36.74,55.1-55.04c5.39-5.36,11.84-7.33,19.18-4.5
		C483.62,94.22,487.43,100.13,488.52,107.3z"/>
	<path d="M181.57,161.68c-0.6,9.03-3.69,14.13-9.92,16.8c-6.59,2.83-12.8,1.72-17.96-3.35c-10.21-10.05-20.29-20.23-30.43-30.35
		c-8.49-8.48-17-16.93-25.45-25.43c-7.17-7.21-7.59-17.07-1.08-23.54c6.8-6.76,16.49-6.8,23.67,0.31
		c18.71,18.51,37.38,37.06,55.76,55.9C179.09,154.99,180.42,159.53,181.57,161.68z"/>
	<path d="M111.33,484.81c-9.49-0.19-14.61-3.4-17.46-9.78c-2.98-6.66-1.61-12.8,3.4-17.92c10.14-10.35,20.46-20.53,30.71-30.77
		c8.6-8.6,17.13-17.27,25.84-25.75c5.62-5.47,12.95-6.48,19.31-3.09c5.95,3.17,9.48,9.46,8.08,16.26c-0.7,3.39-2.48,7.05-4.88,9.51
		c-18.35,18.86-36.87,37.57-55.62,56.03C117.74,482.25,113.28,483.7,111.33,484.81z"/>
	<path d="M73.24,272.03c13.65,0,27.29-0.17,40.94,0.06c8.5,0.15,14.47,5.84,15.55,14.04c0.98,7.42-3.7,14.86-11,16.92
		c-2.51,0.71-5.26,0.78-7.9,0.79c-25.79,0.06-51.59,0.07-77.38,0.05c-10.69,0-15.68-5.09-15.68-15.88c0-11.07,4.86-15.96,16.03-16
		c13.15-0.05,26.29-0.01,39.44-0.01C73.24,272.02,73.24,272.02,73.24,272.03z"/>
	<path d="M305.43,72.66c0,12.83,0.05,25.66-0.02,38.48c-0.05,10.25-6.68,17.38-15.95,17.34c-9.31-0.04-15.97-7.16-15.99-17.41
		c-0.06-25.99-0.07-51.98,0-77.97c0.03-9.92,7.13-17.18,16.39-17.1c9.07,0.08,15.51,7.13,15.55,17.17
		C305.47,46.33,305.43,59.49,305.43,72.66z"/>
</g>
</svg>
