<?xml version="1.0" encoding="UTF-8"?>
<!--suppress XmlDefaultAttributeValue, XmlDefaultAttributeValue -->
<svg width="50px" height="50px" viewBox="0 0 50 50" version="1.1" xmlns="http://www.w3.org/2000/svg" xmlns:xlink="http://www.w3.org/1999/xlink">
    <title>icons/formats/digital-horizontal</title>
    <g id="icons/formats/digital-horizontal" stroke="none" stroke-width="1" fill="none" fill-rule="evenodd">
        <g id="Group" transform="translate(0.000000, 17.000000)">
            <path d="M4,4 L4,12 L22.5,12 L22.5,13 C22.5,14.6568542 21.1568542,16 19.5,16 L3,16 C1.34314575,16 0,14.6568542 0,13 L0,3 C0,1.34314575 1.34314575,0 3,0 L19.5,0 C21.1568542,0 22.5,1.34314575 22.5,3 L22.5,4 L4,4 Z" id="Path" fill="#2B2C43" fill-rule="nonzero"></path>
            <path d="M46,12 L46,4 L27.5,4 L27.5,3 C27.5,1.34314575 28.8431458,0 30.5,0 L47,0 C48.6568542,0 50,1.34314575 50,3 L50,13 C50,14.6568542 48.6568542,16 47,16 L30.5,16 C28.8431458,16 27.5,14.6568542 27.5,13 L27.5,12 L46,12 Z" id="Path" fill="#2B2C43" fill-rule="nonzero"></path>
            <rect id="Rectangle" fill="#00AAF3" x="18.5" y="6" width="13" height="4"></rect>
        </g>
    </g>
</svg>
