<?xml version="1.0" encoding="UTF-8"?>
<!--
  - Copyright 2020 (c) Neo-OOH - All Rights Reserved
  - Unauthorized copying of this file, via any medium is strictly prohibited
  - Proprietary and confidential
  - Written by Valentin Dufois <vdufois@neo-ooh.com>
  -
  - @neo/api - digital-vertical.svg
  -->

<!--suppress XmlDefaultAttributeValue -->
<svg width="18px" height="50px" viewBox="0 0 18 50" version="1.1" xmlns="http://www.w3.org/2000/svg">
    <title>icons/formats/digital-vertical</title>
    <g id="icons/formats/digital-vertical" stroke="none" stroke-width="1" fill="none" fill-rule="evenodd">
        <g id="Group" transform="translate(0.500000, 8.500000)">
            <path d="M1,8 L1,16 L19.5,16 L19.5,17 C19.5,18.6568542 18.1568542,20 16.5,20 L0,20 C-1.65685425,20 -3,18.6568542 -3,17 L-3,7 C-3,5.34314575 -1.65685425,4 0,4 L16.5,4 C18.1568542,4 19.5,5.34314575 19.5,7 L19.5,8 L1,8 Z"
                  id="Path" fill="#2B2C43" fill-rule="nonzero"
                  transform="translate(8.250000, 12.000000) rotate(-270.000000) translate(-8.250000, -12.000000) "></path>
            <polygon id="Path" fill="#00AAF3"
                     points="14.75 28.25 14.75 32.25 1.75 32.25 1.75 28.25 6.249 28.249 6.25 19.25 10.25 19.25 10.249 28.25"></polygon>
        </g>
    </g>
</svg>
