<?xml version="1.0" encoding="UTF-8"?>
<!--suppress XmlDefaultAttributeValue, XmlDefaultAttributeValue -->
<svg width="50px" height="50px" viewBox="0 0 50 50" version="1.1" xmlns="http://www.w3.org/2000/svg" xmlns:xlink="http://www.w3.org/1999/xlink">
    <title>icons/add-square</title>
    <g id="icons/add-square" stroke="none" stroke-width="1" fill="none" fill-rule="evenodd">
        <path d="M45,0 C47.7614237,0 50,2.23857625 50,5 L50,45 C50,47.7614237 47.7614237,50 45,50 L5,50 C2.23857625,50 0,47.7614237 0,45 L0,5 C0,2.23857625 2.23857625,0 5,0 L45,0 Z M45,2 L5,2 C3.40231912,2 2.09633912,3.24891996 2.00509269,4.82372721 L2,5 L2,45 C2,46.5976809 3.24891996,47.9036609 4.82372721,47.9949073 L5,48 L45,48 C46.5976809,48 47.9036609,46.75108 47.9949073,45.1762728 L48,45 L48,5 C48,3.40231912 46.75108,2.09633912 45.1762728,2.00509269 L45,2 Z" id="Rectangle" fill="#2B2C43" fill-rule="nonzero"></path>
        <path d="M26,14 C26.5522847,14 27,14.4477153 27,15 L27,15 L27,23 L35,23 C35.5128358,23 35.9355072,23.3860402 35.9932723,23.8833789 L35.9932723,23.8833789 L36,24 L36,26 C36,26.5522847 35.5522847,27 35,27 L35,27 L27,27 L27,35 C27,35.5128358 26.6139598,35.9355072 26.1166211,35.9932723 L26.1166211,35.9932723 L26,36 L24,36 C23.4477153,36 23,35.5522847 23,35 L23,35 L23,27 L15,27 C14.4871642,27 14.0644928,26.6139598 14.0067277,26.1166211 L14.0067277,26.1166211 L14,26 L14,24 C14,23.4477153 14.4477153,23 15,23 L15,23 L23,23 L23,15 C23,14.4871642 23.3860402,14.0644928 23.8833789,14.0067277 L23.8833789,14.0067277 L24,14 Z" id="Combined-Shape" fill="#00AAF3"></path>
        <path d="M45,0 C47.7614237,0 50,2.23857625 50,5 L50,45 C50,47.7614237 47.7614237,50 45,50 L5,50 C2.23857625,50 0,47.7614237 0,45 L0,5 C0,2.23857625 2.23857625,0 5,0 L45,0 Z M45,4 L5,4 C4.48716416,4 4.06449284,4.38604019 4.00672773,4.88337887 L4,5 L4,45 C4,45.5128358 4.38604019,45.9355072 4.88337887,45.9932723 L5,46 L45,46 C45.5128358,46 45.9355072,45.6139598 45.9932723,45.1166211 L46,45 L46,5 C46,4.48716416 45.6139598,4.06449284 45.1166211,4.00672773 L45,4 Z" id="Rectangle" fill="#2B2C43" fill-rule="nonzero"></path>
    </g>
</svg>
