<?xml version="1.0" encoding="UTF-8"?>
<!--
  - Copyright 2020 (c) Neo-OOH - All Rights Reserved
  - Unauthorized copying of this file, via any medium is strictly prohibited
  - Proprietary and confidential
  - Written by Valentin Dufois <vdufois@neo-ooh.com>
  -
  - @neo/api - both-arrows.svg
  -->

<!--suppress XmlDefaultAttributeValue, XmlDefaultAttributeValue -->
<svg width="50px" height="50px" viewBox="0 0 50 50" version="1.1" xmlns="http://www.w3.org/2000/svg">
    <title>icons/both-arrow</title>
    <g id="icons/both-arrow" stroke="none" stroke-width="1" fill="none" fill-rule="evenodd">
        <path d="M36.2869988,20.4689537 L36.4142136,20.5857864 L49.4142136,33.5857864 C50.1541543,34.3257272 50.1930986,35.5012114 49.5310463,36.2869988 L36.4142136,49.4142136 L36.2869988,49.5310463 C35.5012114,50.1930986 34.3257272,50.1541543 33.5857864,49.4142136 C32.8458457,48.6742728 32.8069014,47.4987886 33.4689537,46.7130012 L33.5857864,46.5857864 L45,35 L33.5857864,23.4142136 C33.1952621,23.0236893 33,22.5118446 33,22 C33,21.4881554 33.1952621,20.9763107 33.5857864,20.5857864 C34.3257272,19.8458457 35.5012114,19.8069014 36.2869988,20.4689537 Z"
              id="Path" fill="#2B2C43" fill-rule="nonzero"></path>
        <path d="M40.1359148,33 C41.2404843,33 42.1359148,33.8954305 42.1359148,35 C42.1359148,36.0543618 41.320037,36.9181651 40.2851771,36.9945143 L40.1359148,37 L2,37 C0.8954305,37 8.66862138e-13,36.1045695 8.66862138e-13,35 C8.66862138e-13,33.9456382 0.815877791,33.0818349 1.85073766,33.0054857 L2,33 L40.1359148,33 Z"
              id="Line" fill="#00AAF3" fill-rule="nonzero"></path>
        <path d="M3.28699879,0.468953686 L3.41421356,0.585786438 L16.4142136,13.5857864 C17.1541543,14.3257272 17.1930986,15.5012114 16.5310463,16.2869988 L3.41421356,29.4142136 L3.28699879,29.5310463 C2.50121136,30.1930986 1.3257272,30.1541543 0.585786438,29.4142136 C-0.154154326,28.6742728 -0.193098576,27.4987886 0.468953686,26.7130012 L0.585786438,26.5857864 L12,15 L0.585786438,3.41421356 C-0.195262146,2.63316498 -0.195262146,1.36683502 0.585786438,0.585786438 C1.3257272,-0.154154326 2.50121136,-0.193098576 3.28699879,0.468953686 Z"
              id="Path" fill="#2B2C43" fill-rule="nonzero"
              transform="translate(8.500000, 15.000000) scale(-1, 1) translate(-8.500000, -15.000000) "></path>
        <path d="M48,13 C49.1045695,13 50,13.8954305 50,15 C50,16.0543618 49.1841222,16.9181651 48.1492623,16.9945143 L48,17 L9.86408521,17 C8.75951571,17 7.86408521,16.1045695 7.86408521,15 C7.86408521,13.9456382 8.67996301,13.0818349 9.71482287,13.0054857 L9.86408521,13 L48,13 Z"
              id="Line" fill="#00AAF3" fill-rule="nonzero"
              transform="translate(28.932043, 15.000000) scale(-1, 1) translate(-28.932043, -15.000000) "></path>
    </g>
</svg>
