<?xml version="1.0" encoding="UTF-8"?>
<!--
  - Copyright 2020 (c) Neo-OOH - All Rights Reserved
  - Unauthorized copying of this file, via any medium is strictly prohibited
  - Proprietary and confidential
  - Written by Valentin Dufois <vdufois@neo-ooh.com>
  -
  - @neo/api - calendar-next.svg
  -->

<!--suppress XmlDefaultAttributeValue, XmlDefaultAttributeValue -->
<svg width="50px" height="50px" viewBox="0 0 50 50" version="1.1" xmlns="http://www.w3.org/2000/svg">
    <title>icons/calendar-next</title>
    <g id="icons/calendar-next" stroke="none" stroke-width="1" fill="none" fill-rule="evenodd">
        <path d="M38.588892,19.5857864 C39.2619794,18.912699 40.305416,18.814107 41.0865899,19.3185978 L41.2298321,19.4202642 L41.2779151,19.4601214 L41.4173191,19.5857864 L49.4173191,27.5857864 C50.0927436,28.261211 50.1896763,29.3095611 49.6456543,30.1321181 L49.5429842,30.2748095 L49.4173191,30.4142136 L41.4173191,38.4142136 C40.6362705,39.1952621 39.3699406,39.1952621 38.588892,38.4142136 C37.9134674,37.738789 37.8165348,36.6904389 38.3605568,35.8678819 L38.4632269,35.7251905 L38.5888478,35.5858306 L43.172725,31 L26.0031055,31 C25.0014618,31 24.1717971,30.2636703 24.0258749,29.3027743 L24.0085913,29.1492623 L24.0031055,29 C24.0031055,28.0356274 24.6886626,27.2201824 25.6637618,27.0335826 L25.8288914,27.0083876 L26.0031055,27 L43.173725,27 L38.588892,22.4142136 C37.9531983,21.7785199 37.8299403,20.8124838 38.2711937,20.015261 L38.3605568,19.8678819 L38.4632269,19.7251905 L38.588892,19.5857864 Z"
              id="Path" fill="#00AAF3" fill-rule="nonzero"></path>
        <path d="M39,-1.63424829e-13 C40.0543618,-1.63424829e-13 40.9181651,0.815877791 40.9945143,1.85073766 L41,2 L41,4.551 L43.4,4.55175231 C46.9637102,4.55175231 49.873784,7.36131919 49.9960036,10.8811517 L50,11.1116914 L50,17 C50,18.1045695 49.1045695,19 48,19 C46.9456382,19 46.0818349,18.1841222 46.0054857,17.1492623 L46,17 L46,11.1116914 C46,9.75603725 44.9273645,8.64060272 43.5648438,8.55680547 L43.4,8.55175231 L41,8.551 L41,11.1666667 C41,12.2712362 40.1045695,13.1666667 39,13.1666667 C37.9456382,13.1666667 37.0818349,12.3507889 37.0054857,11.315929 L37,11.1666667 L37,8.551 L26.999,8.551 L27,11.1666667 C27,12.2712362 26.1045695,13.1666667 25,13.1666667 C23.9456382,13.1666667 23.0818349,12.3507889 23.0054857,11.315929 L23,11.1666667 L22.999,8.551 L12.999,8.551 L13,11.1666667 C13,12.2712362 12.1045695,13.1666667 11,13.1666667 C9.9456382,13.1666667 9.08183488,12.3507889 9.00548574,11.315929 L9,11.1666667 L8.999,8.551 L6.6,8.55175231 C5.21554088,8.55175231 4.08965699,9.61504629 4.00509855,10.9502166 L4,11.1116914 L4,43.4400612 C4,44.7957154 5.07263546,45.9111499 6.43515616,45.9949471 L6.6,46 L43.4,46 C44.7844591,46 45.910343,44.9367063 45.9949014,43.601536 L46,43.4400612 L46,41 C46,39.8954305 46.8954305,39 48,39 C49.0543618,39 49.9181651,39.8158778 49.9945143,40.8507377 L50,41 L50,43.4400612 C50,46.9897827 47.1657499,49.8748756 43.6314673,49.9960386 L43.4,50 L6.6,50 C3.03628975,50 0.126216042,47.1904334 0.00399638668,43.670601 L0,43.4400612 L0,11.1116914 C0,7.56196991 2.83425009,4.67687703 6.36853275,4.55571406 L6.6,4.55175231 L8.999,4.551 L9,2 C9,0.8954305 9.8954305,-1.63424829e-13 11,-1.63424829e-13 C12.0543618,-1.63424829e-13 12.9181651,0.815877791 12.9945143,1.85073766 L13,2 L12.999,4.551 L22.999,4.551 L23,2 C23,0.8954305 23.8954305,-1.63424829e-13 25,-1.63424829e-13 C26.0543618,-1.63424829e-13 26.9181651,0.815877791 26.9945143,1.85073766 L27,2 L26.999,4.551 L37,4.551 L37,2 C37,0.8954305 37.8954305,-1.63424829e-13 39,-1.63424829e-13 Z"
              id="Path" fill="#2B2C43" fill-rule="nonzero"></path>
    </g>
</svg>
