<?xml version="1.0" encoding="UTF-8"?>
<!--
  - Copyright 2020 (c) Neo-OOH - All Rights Reserved
  - Unauthorized copying of this file, via any medium is strictly prohibited
  - Proprietary and confidential
  - Written by Valentin Dufois <vdufois@neo-ooh.com>
  -
  - @neo/api - calendar.svg
  -->

<!--suppress XmlDefaultAttributeValue -->
<svg width="50px" height="50px" viewBox="0 0 50 50" version="1.1" xmlns="http://www.w3.org/2000/svg">
    <title>icons/calendar</title>
    <g id="icons/calendar" stroke="none" stroke-width="1" fill="none" fill-rule="evenodd">
        <path d="M50,43.4400612 C50,46.9897827 47.1657499,49.8748756 43.6314673,49.9960386 L43.4,50 L6.6,50 C3.03628975,50 0.126216042,47.1904334 0.00399638668,43.670601 L0,43.4400612 L0,11.1116914 C0,7.56196991 2.83425009,4.67687703 6.36853275,4.55571406 L6.6,4.55175231 L8.999,4.551 L9,2 C9,0.8954305 9.8954305,-1.56319402e-13 11,-1.56319402e-13 C12.0543618,-1.56319402e-13 12.9181651,0.815877791 12.9945143,1.85073766 L13,2 L12.999,4.551 L22.999,4.551 L23,2 C23,0.8954305 23.8954305,-1.56319402e-13 25,-1.56319402e-13 C26.0543618,-1.56319402e-13 26.9181651,0.815877791 26.9945143,1.85073766 L27,2 L26.999,4.551 L37,4.551 L37,2 C37,0.8954305 37.8954305,-1.56319402e-13 39,-1.56319402e-13 C40.0543618,-1.56319402e-13 40.9181651,0.815877791 40.9945143,1.85073766 L41,2 L41,4.551 L43.4,4.55175231 C46.9637102,4.55175231 49.873784,7.36131919 49.9960036,10.8811517 L50,11.1116914 L50,43.4400612 Z M46,11.1116914 C46,9.75603725 44.9273645,8.64060272 43.5648438,8.55680547 L43.4,8.55175231 L41,8.551 L41,11.1666667 C41,12.2712362 40.1045695,13.1666667 39,13.1666667 C37.9456382,13.1666667 37.0818349,12.3507889 37.0054857,11.315929 L37,11.1666667 L37,8.551 L26.999,8.551 L27,11.1666667 C27,12.2712362 26.1045695,13.1666667 25,13.1666667 C23.9456382,13.1666667 23.0818349,12.3507889 23.0054857,11.315929 L23,11.1666667 L22.999,8.551 L12.999,8.551 L13,11.1666667 C13,12.2712362 12.1045695,13.1666667 11,13.1666667 C9.9456382,13.1666667 9.08183488,12.3507889 9.00548574,11.315929 L9,11.1666667 L8.999,8.551 L6.6,8.55175231 C5.21554088,8.55175231 4.08965699,9.61504629 4.00509855,10.9502166 L4,11.1116914 L4,43.4400612 C4,44.7957154 5.07263546,45.9111499 6.43515616,45.9949471 L6.6,46 L43.4,46 C44.7844591,46 45.910343,44.9367063 45.9949014,43.601536 L46,43.4400612 L46,11.1116914 Z"
              id="Combined-Shape" fill="#2B2C43" fill-rule="nonzero"></path>
        <g id="Group" transform="translate(8.000000, 18.817357)" fill="#00AAF3" stroke="#00AAF3">
            <circle id="Oval-Copy-6" cx="12" cy="11" r="2"></circle>
            <circle id="Oval-Copy-7" cx="22" cy="11" r="2"></circle>
            <circle id="Oval-Copy-19" cx="32" cy="2" r="2"></circle>
            <circle id="Oval-Copy-20" cx="12" cy="2" r="2"></circle>
            <circle id="Oval-Copy-3" cx="22" cy="2" r="2"></circle>
            <circle id="Oval-Copy-8" cx="32" cy="11" r="2"></circle>
            <circle id="Oval-Copy-14" cx="2" cy="11" r="2"></circle>
            <circle id="Oval-Copy-15" cx="2" cy="20" r="2"></circle>
            <circle id="Oval-Copy-13" cx="12" cy="20" r="2"></circle>
            <circle id="Oval-Copy-12" cx="22" cy="20" r="2"></circle>
        </g>
    </g>
</svg>
