<?xml version="1.0" encoding="UTF-8"?>
<!--
  - Copyright 2020 (c) Neo-OOH - All Rights Reserved
  - Unauthorized copying of this file, via any medium is strictly prohibited
  - Proprietary and confidential
  - Written by Valentin Dufois <vdufois@neo-ooh.com>
  -
  - @neo/api - checked-square.svg
  -->

<!--suppress XmlDefaultAttributeValue, XmlDefaultAttributeValue -->
<svg width="50px" height="50px" viewBox="0 0 50 50" version="1.1" xmlns="http://www.w3.org/2000/svg">
    <title>icons/checked-square</title>
    <g id="icons/checked-square" stroke="none" stroke-width="1" fill="none" fill-rule="evenodd">
        <path d="M45,0 C47.7614237,0 50,2.23857625 50,5 L50,45 C50,47.7614237 47.7614237,50 45,50 L5,50 C2.23857625,50 0,47.7614237 0,45 L0,5 C0,2.23857625 2.23857625,0 5,0 L45,0 Z M45,4 L5,4 C4.48716416,4 4.06449284,4.38604019 4.00672773,4.88337887 L4,5 L4,45 C4,45.5128358 4.38604019,45.9355072 4.88337887,45.9932723 L5,46 L45,46 C45.5128358,46 45.9355072,45.6139598 45.9932723,45.1166211 L46,45 L46,5 C46,4.48716416 45.6139598,4.06449284 45.1166211,4.00672773 L45,4 Z"
              id="Rectangle" fill="#2B2C43" fill-rule="nonzero"></path>
        <path d="M31.5857864,17.5857864 C32.366835,16.8047379 33.633165,16.8047379 34.4142136,17.5857864 C35.0896381,18.261211 35.1865708,19.3095611 34.6425487,20.1321181 L34.5398786,20.2748095 L34.4142136,20.4142136 L23.4142136,31.4142136 C22.738789,32.0896381 21.6904389,32.1865708 20.8678819,31.6425487 L20.7251905,31.5398786 L20.5857864,31.4142136 L15.5857864,26.4142136 C14.8047379,25.633165 14.8047379,24.366835 15.5857864,23.5857864 C16.261211,22.9103619 17.3095611,22.8134292 18.1321181,23.3574513 L18.2748095,23.4601214 L18.4141488,23.5857217 L21.999,27.17 L31.5857864,17.5857864 Z"
              id="Path" fill="#00AAF3" fill-rule="nonzero"></path>
    </g>
</svg>
