<?xml version="1.0" encoding="UTF-8"?>
<!--suppress XmlDefaultAttributeValue, XmlDefaultAttributeValue -->
<svg width="49px" height="49px" viewBox="0 0 49 49" version="1.1" xmlns="http://www.w3.org/2000/svg">
    <title>icons/checked-round</title>
    <g id="icons/checked-round" stroke="none" stroke-width="1" fill="none" fill-rule="evenodd">
        <path d="M31.5857864,17.5857864 C32.366835,16.8047379 33.633165,16.8047379 34.4142136,17.5857864 C35.0896381,18.261211 35.1865708,19.3095611 34.6425487,20.1321181 L34.5398786,20.2748095 L34.4142136,20.4142136 L23.4142136,31.4142136 C22.738789,32.0896381 21.6904389,32.1865708 20.8678819,31.6425487 L20.7251905,31.5398786 L20.5857864,31.4142136 L15.5857864,26.4142136 C14.8047379,25.633165 14.8047379,24.366835 15.5857864,23.5857864 C16.261211,22.9103619 17.3095611,22.8134292 18.1321181,23.3574513 L18.2748095,23.4601214 L18.4141488,23.5857217 L21.999,27.17 L31.5857864,17.5857864 Z"
              id="Path" fill="#00AAF3" fill-rule="nonzero"></path>
        <path d="M24.5,0 C38.0309764,0 49,10.9690236 49,24.5 C49,38.0309764 38.0309764,49 24.5,49 C10.9690236,49 0,38.0309764 0,24.5 C0,10.9690236 10.9690236,0 24.5,0 Z M24.5,4 C13.1781626,4 4,13.1781626 4,24.5 C4,35.8218374 13.1781626,45 24.5,45 C35.8218374,45 45,35.8218374 45,24.5 C45,13.1781626 35.8218374,4 24.5,4 Z"
              id="Oval" fill="#2B2C43" fill-rule="nonzero"></path>
    </g>
</svg>
