<?xml version="1.0" encoding="UTF-8"?>
<!--
  - Copyright 2020 (c) Neo-OOH - All Rights Reserved
  - Unauthorized copying of this file, via any medium is strictly prohibited
  - Proprietary and confidential
  - Written by Valentin Dufois <vdufois@neo-ooh.com>
  -
  - @neo/api - clock.svg
  -->

<!--suppress XmlDefaultAttributeValue, XmlDefaultAttributeValue -->
<svg width="50px" height="50px" viewBox="0 0 50 50" version="1.1" xmlns="http://www.w3.org/2000/svg">
    <title>icons/clock</title>
    <g id="icons/clock" stroke="none" stroke-width="1" fill="none" fill-rule="evenodd">
        <path d="M44.2307682,7.10542736e-15 C45.1580495,7.10542736e-15 45.9421312,0.659189492 46.1215541,1.59678479 L46.1457801,1.75556322 L46.153845,1.92307682 L46.153845,12.5 C46.153845,13.4272806 45.4946556,14.2113623 44.5570602,14.3907852 L44.3982818,14.4150112 L44.2307682,14.4230762 L34.6153841,14.4230762 C33.5532981,14.4230762 32.6923073,13.5620853 32.6923073,12.5 C32.6923073,11.572718 33.3514968,10.7886364 34.2890921,10.6092135 L34.4478705,10.5849875 L34.6153314,10.5769225 L40.4721146,10.575961 L40.2564157,10.3463 C39.0795845,9.12124188 37.7601926,8.04089497 36.3303889,7.13246544 L35.8497424,6.83606023 L35.4059165,6.57784007 L34.971598,6.33853549 L34.6180667,6.15327279 L34.0927109,5.89419274 L33.7862566,5.75126637 L33.3910359,5.57568652 L32.957874,5.39426638 L32.5206532,5.2225013 L32.0657128,5.05558794 L31.6394436,4.90985496 L31.2684068,4.79117152 L30.7715725,4.64404151 L30.3450631,4.52826195 L30.1141882,4.46950167 L29.6421527,4.35806703 L29.2139093,4.26683821 L28.9730279,4.21951192 L28.4765055,4.13119785 L27.981843,4.05531554 L27.5715317,4.00143036 L27.3657796,3.97741178 L26.9306127,3.93337503 L26.4407664,3.89465116 L26.1460163,3.87673439 L25.580823,3.85392952 L25.0000013,3.84615364 C13.317054,3.84615364 3.84615496,13.3170527 3.84615496,25 C3.84615496,25.1913037 3.84869193,25.3822987 3.85375695,25.5729412 C3.85863777,25.7565712 3.86586131,25.939897 3.87512172,26.1187426 L3.89050176,26.3831291 L3.94048013,27.0121206 L3.97221025,27.3218335 L4.01761846,27.7077027 L4.06772181,28.0745807 L4.11035848,28.3537583 L4.18416176,28.7885102 L4.30427238,29.3978799 L4.35869433,29.6503239 L4.43758712,29.9908691 L4.64888524,30.7946623 L4.79606357,31.287832 L4.88591018,31.5698744 L5.0077976,31.9321593 L5.17465627,32.3957869 L5.35617802,32.8647429 L5.51610275,33.252634 L5.51610275,33.252634 L5.68051156,33.6300292 L5.88153452,34.0665568 L6.05234381,34.4172494 L6.28708858,34.874208 C7.03147951,36.2818748 7.93305711,37.6010158 8.96908489,38.8028117 L9.36385325,39.2479282 L9.5782449,39.479618 L9.84283787,39.7563221 L10.1872339,40.1020135 L10.5471458,40.4468383 L10.7253005,40.6117519 L10.7253005,40.6117519 L10.8990975,40.7690781 L11.2633842,41.08759 L11.5599051,41.3356029 L11.9127523,41.6209473 L12.3315315,41.9426725 L12.7273014,42.2321144 L12.9431359,42.383963 L13.1579621,42.5313145 L13.4928604,42.7533834 L13.8037883,42.9517505 L14.2807825,43.2410143 L14.6546603,43.4562587 L14.9235099,43.6045823 L15.1877828,43.7456915 L15.772044,44.0408436 L16.2136426,44.2490602 L16.8054283,44.5084908 L17.3725576,44.7375028 L17.6177451,44.8303144 C19.4022683,45.4949259 21.2747516,45.915957 23.1884327,46.0776671 L23.7113321,46.1153286 L24.1922748,46.138743 L24.477766,46.1475996 L25.0000013,46.1538437 C28.1133607,46.1538437 31.1449634,45.4818677 33.9317835,44.1818013 C34.1465152,44.0816278 34.3751136,44.0227871 34.6343297,44.0074501 L34.8347444,44.0041383 L34.9935219,44.0175223 C35.6401289,44.1021673 36.2063949,44.5088505 36.4875613,45.1115584 C36.9365746,46.0740623 36.5203081,47.2183231 35.5578042,47.6673363 C32.610851,49.0421057 29.4301361,49.8239072 26.1508523,49.9736684 L25.5711595,49.993528 L24.9887614,49.9999317 L24.3943969,49.9927415 L23.9276752,49.9766688 L23.4452183,49.9523514 C21.7474542,49.8481527 20.0785218,49.5733792 18.4481416,49.1320989 L17.8385751,48.9588217 L17.1993527,48.758409 C16.9953965,48.6915994 16.7922939,48.6220914 16.5865764,48.5485833 L16.2756056,48.4351583 L15.710003,48.216407 C15.5186787,48.1399782 15.3278194,48.060849 15.1342634,47.9776241 L14.8415117,47.8495407 L14.334256,47.6166575 L13.967378,47.4398236 L13.6994861,47.3058815 L13.6994861,47.3058815 L13.4272937,47.1656114 L12.8770639,46.8687583 L12.5083299,46.6599434 L11.9338288,46.3175765 L11.5533576,46.0792317 L11.5533576,46.0792317 L11.1704359,45.8295295 L10.7154031,45.5195344 L10.2626745,45.1963346 L9.91397355,44.9367689 L9.43035208,44.5609628 L9.0584738,44.2586672 L8.58053741,43.8526029 L8.22996293,43.5411457 L8.22996293,43.5411457 L7.87942397,43.217754 L7.47343189,42.8274301 L7.06846942,42.4201583 L6.68636997,42.0181039 C5.56515773,40.8120654 4.56496777,39.4986645 3.69649145,38.0886631 L3.37700779,37.5554055 L3.0148093,36.9109248 L2.79967522,36.5057875 L2.58529062,36.083471 L2.33411324,35.5609567 L2.11715877,35.08309 L1.90600736,34.5905184 L1.71720597,34.1229403 L1.5496934,33.6836781 L1.5496934,33.6836781 L1.38759655,33.2327732 L1.20948147,32.7026407 L1.09003068,32.3231769 L1.00256067,32.030761 L1.00256067,32.030761 L0.917129889,31.7317901 L0.757355453,31.1295586 L0.648942897,30.6821645 C0.576043812,30.3690117 0.509164267,30.0538732 0.448145088,29.7357057 L0.360991698,29.2560523 L0.265367895,28.6544348 L0.2036555,28.204849 L0.14773142,27.7326926 L0.0849504967,27.0741599 L0.0435905231,26.4872538 L0.0222955035,26.0644562 L0.0222955035,26.0644562 L0.00793282249,25.6346223 L1.31363031e-06,25 C1.31363031e-06,11.1928807 11.192882,7.10542736e-15 25.0000013,7.10542736e-15 C31.3160828,7.10542736e-15 37.3038657,2.36671541 41.8719212,6.54865542 L42.2036196,6.85788258 L42.3076914,6.95865348 L42.3076914,1.92307682 C42.3076914,1.04731116 42.8956721,0.29927602 43.7508534,0.0677143628 L43.9044762,0.0322909827 L44.0632546,0.00806498763 L44.2307682,7.10542736e-15 Z M47.1428134,31.8007025 C48.1285755,32.1960502 48.6072009,33.3156609 48.2118533,34.3014229 C46.6520383,38.1906743 44.1277244,41.6346275 40.8841285,44.3061419 C40.0643116,44.9813655 38.8523418,44.8641495 38.1771182,44.0443326 C37.5018946,43.2245157 37.6191106,42.0125459 38.4389275,41.3373223 C41.1854286,39.0752288 43.322681,36.1595717 44.642093,32.8697424 C45.0374406,31.8839803 46.1570513,31.4053549 47.1428134,31.8007025 Z M48.2933141,15.9043374 C49.421675,18.7919949 49.9999987,21.8648888 49.9999987,24.9999987 C49.9999987,26.0717421 49.9324482,27.1374562 49.7978406,28.192652 C49.6634433,29.2462003 48.700423,29.9913194 47.6468747,29.856922 C46.5933264,29.7225246 45.8482074,28.7595044 45.9826048,27.7059561 C46.0966108,26.8122564 46.153845,25.9091005 46.153845,24.9999987 C46.153845,22.3439371 45.6650062,19.7457658 44.7109415,17.3041603 C44.3243911,16.3149155 44.8129715,15.199613 45.8022163,14.8130626 C46.7914612,14.4265121 47.9067637,14.9150925 48.2933141,15.9043374 Z"
              id="Shape" fill="#2B2C43" fill-rule="nonzero"></path>
        <path d="M25,7.69230729 C25.9272813,7.69230729 26.711363,8.35149678 26.8907858,9.28909208 L26.9150118,9.44787051 L26.9230768,9.61538411 L26.9230768,24.9999987 C26.9230768,25.3704097 26.8161525,25.7312674 26.5905622,26.0730387 L26.4865812,26.2183158 L26.3598207,26.3598193 L18.6675134,34.0521266 C17.9165052,34.8031348 16.6988803,34.8031348 15.9478721,34.0521266 C15.2984254,33.40268 15.2052209,32.3946511 15.728319,31.6037309 L15.8270403,31.4665277 L15.9477933,31.3325641 L23.0769232,24.1999987 L23.0769232,9.61538411 C23.0769232,8.73961844 23.6649039,7.99158331 24.5200852,7.76002165 L24.673708,7.72459827 L24.8324864,7.70037228 L24.9446221,7.6939033 L25,7.69230729 Z"
              id="Path" fill="#00AAF3" fill-rule="nonzero"></path>
    </g>
</svg>
