<?xml version="1.0" encoding="UTF-8"?>
<!--suppress XmlDefaultAttributeValue -->
<svg width="50px" height="50px" viewBox="0 0 50 50" version="1.1" xmlns="http://www.w3.org/2000/svg">
    <title>icons/close</title>
    <g id="icons/close" stroke="none" stroke-width="1" fill="none" fill-rule="evenodd">
        <path d="M16.65614,14.9590837 C17.0166239,14.5985997 17.583855,14.5708702 17.9761462,14.8758951 L18.0703535,14.9590837 L25,21.8887302 L31.9296465,14.9590837 C32.262057,14.6266731 32.7702669,14.5772073 33.1549986,14.8106861 L33.2566392,14.8813773 L33.34386,14.9590837 L35.0409163,16.65614 C35.4014003,17.0166239 35.4291298,17.583855 35.1241049,17.9761462 L35.0409163,18.0703535 L28.1112698,25 L35.0409163,31.9296465 C35.3733269,32.262057 35.4227927,32.7702669 35.1893139,33.1549986 L35.1186227,33.2566392 L35.0409163,33.34386 L33.34386,35.0409163 C32.9833761,35.4014003 32.416145,35.4291298 32.0238538,35.1241049 L31.9296465,35.0409163 L25,28.1112698 L18.0703535,35.0409163 C17.737943,35.3733269 17.2297331,35.4227927 16.8450014,35.1893139 L16.7433608,35.1186227 L16.65614,35.0409163 L14.9590837,33.34386 C14.5985997,32.9833761 14.5708702,32.416145 14.8758951,32.0238538 L14.9590837,31.9296465 L21.8887302,25 L14.9590837,18.0703535 C14.6266731,17.737943 14.5772073,17.2297331 14.8106861,16.8450014 L14.8813773,16.7433608 L14.9590837,16.65614 L16.65614,14.9590837 Z"
              id="Path" fill="#00AAF3"></path>
        <path d="M45,0 C47.7614237,0 50,2.23857625 50,5 L50,45 C50,47.7614237 47.7614237,50 45,50 L5,50 C2.23857625,50 0,47.7614237 0,45 L0,5 C0,2.23857625 2.23857625,0 5,0 L45,0 Z M45,4 L5,4 C4.48716416,4 4.06449284,4.38604019 4.00672773,4.88337887 L4,5 L4,45 C4,45.5128358 4.38604019,45.9355072 4.88337887,45.9932723 L5,46 L45,46 C45.5128358,46 45.9355072,45.6139598 45.9932723,45.1166211 L46,45 L46,5 C46,4.48716416 45.6139598,4.06449284 45.1166211,4.00672773 L45,4 Z"
              id="Rectangle" fill="#2B2C43" fill-rule="nonzero"></path>
    </g>
</svg>
