<?xml version="1.0" encoding="UTF-8"?>
<!--
  - Copyright 2020 (c) Neo-OOH - All Rights Reserved
  - Unauthorized copying of this file, via any medium is strictly prohibited
  - Proprietary and confidential
  - Written by Valentin Dufois <vdufois@neo-ooh.com>
  -
  - @neo/api - edit.svg
  -->

<!--suppress XmlDefaultAttributeValue, XmlDefaultAttributeValue -->
<svg width="50px" height="50px" viewBox="0 0 50 50" version="1.1" xmlns="http://www.w3.org/2000/svg">
    <title>icons/edit</title>
    <g id="icons/edit" stroke="none" stroke-width="1" fill="none" fill-rule="evenodd">
        <path d="M49.5436739,13.6547098 L49.4670615,13.8938426 L49.2501508,14.5445746 L26.9306438,36.8640816 L8.99750078,41.0024992 L13.1359184,23.0693562 L35.460232,0.745042664 L36.3740928,0.447556298 C44.3077983,-1.96491712 51.9696535,5.76460812 49.5436739,13.6547098 Z M45.9135531,12.2589708 C47.1467662,7.55217269 42.6565243,2.97327388 37.9548674,4.03431438 L37.7410292,4.08644693 L37.5431805,4.14083973 L16.6601921,25.0228596 L14.166173,35.8328585 L24.9761719,33.3388394 L45.8581917,12.455851 L45.9135531,12.2589708 Z"
              id="Shape" fill="#00AAF3" fill-rule="nonzero"></path>
        <path d="M28.68,-0.00130153484 C29.7845695,-0.00130153484 30.68,0.894128965 30.68,1.99869847 C30.68,3.05306026 29.8641222,3.91686359 28.8292623,3.99321273 L28.68,3.99869847 L6.6,3.99869847 C5.2192891,3.99869847 4.08994532,5.07494044 4.00511519,6.43428006 L4,6.59870892 L4,43.39999 C4,44.7807084 5.07623952,45.9100549 6.43557202,45.9948853 L6.6,46.0000005 L43.4,46.0000005 C44.7807109,46.0000005 45.9100547,44.9237585 45.9948848,43.5644189 L46,43.39999 L46,20.3999377 C46,19.2953682 46.8954305,18.3999377 48,18.3999377 C49.0543618,18.3999377 49.9181651,19.2158155 49.9945143,20.2506754 L50,20.3999377 L50,43.39999 C50,46.9675191 47.169484,49.8739465 43.6317056,49.9960093 L43.4,50.0000005 L6.6,50.0000005 C3.03247453,50.0000005 0.126053692,47.169478 0.00399120531,43.6316958 L0,43.39999 L0,6.59870892 C0,3.0311798 2.83051605,0.124752442 6.3682944,0.00268967951 L6.6,-0.00130153484 L28.68,-0.00130153484 Z"
              id="Path" fill="#2B2C43" fill-rule="nonzero"></path>
    </g>
</svg>
