<!--
  - Copyright 2020 (c) Neo-OOH - All Rights Reserved
  - Unauthorized copying of this file, via any medium is strictly prohibited
  - Proprietary and confidential
  - Written by Valentin Dufois <vdufois@neo-ooh.com>
  -
  - @neo/api - folder.svg
  -->

<svg id="_ÎÓÈ_1" data-name="—ÎÓÈ 1" xmlns="http://www.w3.org/2000/svg" viewBox="0 0 487.17 401.5">
    <defs>
        <style>.cls-1{fill:#1d1d1b;}</style>
    </defs>
    <path class="cls-1"
          d="M32.09,401.5H461.27a25.93,25.93,0,0,0,25.9-25.9V110.4a25.94,25.94,0,0,0-25.9-25.91H76.62A25.94,25.94,0,0,0,50.71,110.4l.11,259a18.73,18.73,0,0,1-37.45,0L13.33,32A12.59,12.59,0,0,1,25.9,19.41H154.68c4.63,0,10.83,3.72,13,7.79l7.11,13.26c4.53,8.45,15.18,14.82,24.76,14.82H440.08a12.59,12.59,0,0,1,12.57,12.57,6.67,6.67,0,0,0,13.34,0A25.93,25.93,0,0,0,440.08,42H199.57c-4.62,0-10.82-3.71-13-7.79L179.44,20.9c-4.53-8.45-15.17-14.82-24.76-14.82H25.9A25.93,25.93,0,0,0,0,32L0,369.45A32.09,32.09,0,0,0,32.09,401.5Zm32.06-32.06-.1-259A12.59,12.59,0,0,1,76.62,97.83H461.27a12.59,12.59,0,0,1,12.57,12.57V375.6a12.59,12.59,0,0,1-12.57,12.57H58.1A31.93,31.93,0,0,0,64.15,369.44Z"/>
</svg>
