<svg xmlns="http://www.w3.org/2000/svg" viewBox="0 0 587.84 382.99">
    <defs>
        <style>.cls-1{fill:#1d1d1b;}</style>
    </defs>
    <g id="Calque_2">
        <g id="_ÎÓÈ_1">
            <path class="cls-1"
                  d="M569.29,157.79l-159.94-.09h0c-7.82,0-17.47,4.55-22.43,10.59l-17.59,21.38c-2.33,2.83-8,5.51-11.68,5.51h0l-178.57-.1c-11.83,0-24.54,8.45-29.22,19.33L63,360.51c-3.92,6.59-9.22,9.35-12.45,8.62-3.45-.76-4.32-5.69-4.53-7.72L14,23a8,8,0,0,1,8.23-9H161a22.46,22.46,0,0,1,12.54,5l26.56,25.19c5.29,5,14.8,8.82,22.11,8.82h179.9a12.17,12.17,0,0,1,11.47,9.4,7,7,0,1,0,13.6-2.92A26.17,26.17,0,0,0,402.07,39H222.17c-3.73,0-9.83-2.42-12.54-5L183.08,8.82C177.78,3.79,168.27,0,161,0H22.19A21.88,21.88,0,0,0,.11,24.27l32.05,338.5c1.08,10.61,6.83,18.07,15.38,20,1.15.26,400.74.27,400.74.27,11.82,0,24.52-8.46,29.22-19.33l108.21-179.8a7,7,0,0,0,.5-1c2.52-6.26,2.11-12.63-1.15-17.47S576.05,157.79,569.29,157.79Zm4.18,19.43L465.32,356.91a6,6,0,0,0-.49,1c-2.41,5.95-10.14,11.18-16.56,11.18l-374.39.26c.37-.56.73-1.13,1.08-1.72L162,221.1a6.45,6.45,0,0,0,.47-.95C164.91,214.21,172.63,209,179,209l178.57.11h0c7.82,0,17.47-4.55,22.43-10.6l17.59-21.37c2.33-2.84,8-5.52,11.68-5.52h0l159.94.1c2,0,3.61.55,4.23,1.48S574.07,175.52,573.47,177.22Z"/>
            <path class="cls-1"
                  d="M87.92,81.32,49.1,338.81A7,7,0,0,0,55,346.73a7.4,7.4,0,0,0,1,.08,7,7,0,0,0,6.88-5.93L100.79,89.31l364.75,0-2.25,15a7,7,0,0,0,13.76,2.06l3.46-23a7,7,0,0,0-6.89-8L94.8,75.4A7,7,0,0,0,87.92,81.32Z"/>
            <path class="cls-1"
                  d="M509.83,150.63a7,7,0,0,0,8.95-4.1l6-16.05a7,7,0,0,0-6.51-9.38l-372-.34h0a7,7,0,0,0-6.51,4.5L76.1,293.74a7,7,0,0,0,4.06,9,6.77,6.77,0,0,0,2.45.46,7,7,0,0,0,6.51-4.51l61.95-164,357.15.32-2.48,6.67A7,7,0,0,0,509.83,150.63Z"/>
        </g>
    </g>
</svg>
