<?xml version="1.0" encoding="UTF-8"?>
<!--
  - Copyright 2020 (c) Neo-OOH - All Rights Reserved
  - Unauthorized copying of this file, via any medium is strictly prohibited
  - Proprietary and confidential
  - Written by Valentin Dufois <vdufois@neo-ooh.com>
  -
  - @neo/api - left-arrow.svg
  -->

<!--suppress XmlDefaultAttributeValue -->
<svg width="50px" height="50px" viewBox="0 0 50 50" version="1.1" xmlns="http://www.w3.org/2000/svg">
    <title>icons/left-arrow</title>
    <g id="icons/left-arrow" stroke="none" stroke-width="1" fill="none" fill-rule="evenodd">
        <g id="Group" fill-rule="nonzero">
            <g id="icons/right-arrow" transform="translate(25.000000, 25.000000) scale(-1, 1) translate(-25.000000, -25.000000) ">
                <path d="M35.2869988,9.46895369 L35.4142136,9.58578644 L49.4142136,23.5857864 C50.1541543,24.3257272 50.1930986,25.5012114 49.5310463,26.2869988 L35.4142136,40.4142136 L35.2869988,40.5310463 C34.5012114,41.1930986 33.3257272,41.1541543 32.5857864,40.4142136 C31.8458457,39.6742728 31.8069014,38.4987886 32.4689537,37.7130012 L32.5857864,37.5857864 L45,25 L32.5857864,12.4142136 C31.8047379,11.633165 31.8047379,10.366835 32.5857864,9.58578644 C33.3257272,8.84584567 34.5012114,8.80690142 35.2869988,9.46895369 Z"
                      id="Path" fill="#2B2C43"></path>
                <path d="M40.1359148,23 C41.2404843,23 42.1359148,23.8954305 42.1359148,25 C42.1359148,26.0543618 41.320037,26.9181651 40.2851771,26.9945143 L40.1359148,27 L2,27 C0.8954305,27 8.66862138e-13,26.1045695 8.66862138e-13,25 C8.66862138e-13,23.9456382 0.815877791,23.0818349 1.85073766,23.0054857 L2,23 L40.1359148,23 Z"
                      id="Line" fill="#00AAF3"></path>
            </g>
        </g>
    </g>
</svg>
