<?xml version="1.0" encoding="UTF-8"?>
<!--suppress XmlDefaultAttributeValue, XmlDefaultAttributeValue -->
<svg width="50px" height="50px" viewBox="0 0 50 50" version="1.1" xmlns="http://www.w3.org/2000/svg" xmlns:xlink="http://www.w3.org/1999/xlink">
    <title>icons/message</title>
    <g id="icons/message" stroke="none" stroke-width="1" fill="none" fill-rule="evenodd">
        <path d="M45,6 C47.7614237,6 50,8.23857625 50,11 L50,39 C50,41.7614237 47.7614237,44 45,44 L5,44 C2.23857625,44 0,41.7614237 0,39 L0,11 C0,8.23857625 2.23857625,6 5,6 L45,6 Z M45,10 L5,10 C4.48716416,10 4.06449284,10.3860402 4.00672773,10.8833789 L4,11 L4,39 C4,39.5128358 4.38604019,39.9355072 4.88337887,39.9932723 L5,40 L45,40 C45.5128358,40 45.9355072,39.6139598 45.9932723,39.1166211 L46,39 L46,11 C46,10.4871642 45.6139598,10.0644928 45.1166211,10.0067277 L45,10 Z" id="Rectangle" fill="#2B2C43" fill-rule="nonzero"></path>
        <path d="M40.7605574,12.5258503 C41.6030997,11.8115701 42.8651537,11.9155471 43.579434,12.7580894 C44.2580002,13.5585046 44.1980893,14.7375291 43.4680271,15.4658365 L43.3471949,15.5769659 L26.304094,30.0255578 C25.9879399,30.2935831 25.5975254,30.4558089 25.187528,30.4921775 L24.9892248,30.5 C24.574748,30.5 24.1720433,30.3712773 23.8357878,30.1338898 L23.695906,30.0255578 L6.65280509,15.5769659 C5.81026278,14.8626857 5.70628582,13.6006317 6.42056604,12.7580894 C7.09913226,11.9576742 8.27206432,11.8238142 9.11003582,12.4248353 L9.2394426,12.5258503 L24.999,25.887 L40.7605574,12.5258503 Z" id="Line" fill="#00AAF3" fill-rule="nonzero"></path>
    </g>
</svg>
