<?xml version="1.0" encoding="UTF-8"?>
<!--suppress XmlDefaultAttributeValue, XmlDefaultAttributeValue -->
<svg width="50px" height="50px" viewBox="0 0 50 50" version="1.1" xmlns="http://www.w3.org/2000/svg" xmlns:xlink="http://www.w3.org/1999/xlink">
    <title>icons/search</title>
    <g id="icons/search" stroke="none" stroke-width="1" fill="none" fill-rule="evenodd">
        <path d="M29.3979495,28.2174125 C30.0948364,29.074397 29.9650517,30.3340587 29.1080672,31.0309456 C28.6705024,31.3867666 28.2105222,31.7143261 27.730976,32.0113901 C26.7919762,32.5930714 25.5592206,32.3034075 24.9775393,31.3644077 C24.395858,30.425408 24.6855218,29.1926523 25.6245216,28.610971 C25.9586406,28.4039947 26.2792845,28.1756589 26.5844165,27.9275302 C27.441401,27.2306433 28.7010626,27.360428 29.3979495,28.2174125 Z M33.6257757,17.7843751 C33.8568954,18.7681182 33.9746557,19.7805773 33.9746557,20.806881 C33.9746557,22.7579842 33.5488417,24.6526975 32.7384182,26.3844501 C32.2702341,27.3848888 31.0796802,27.8163663 30.0792415,27.3481822 C29.0788029,26.8799981 28.6473254,25.6894442 29.1155094,24.6890056 C29.6788412,23.4852508 29.9746557,22.1689865 29.9746557,20.806881 C29.9746557,20.0891488 29.8925988,19.3836543 29.731799,18.6992222 C29.4791709,17.6239302 30.1460718,16.5474383 31.2213638,16.2948103 C32.2966558,16.0421822 33.3731477,16.7090831 33.6257757,17.7843751 Z M21.797533,7.67660623 L21.946715,7.68396147 C25.5026774,7.99052942 28.7415528,9.72293942 30.9797817,12.4440846 C31.6814574,13.2971526 31.5587298,14.5575214 30.7056618,15.2591971 C29.8525938,15.9608728 28.592225,15.8381451 27.8905493,14.9850771 C26.3297462,13.087518 24.0767485,11.8824343 21.6031399,11.6691787 C20.5026526,11.5743031 19.6874432,10.6052699 19.7823188,9.50478256 C19.8685694,8.50433952 20.6772642,7.7396634 21.6503992,7.68018096 L21.797533,7.67660623 Z" id="Combined-Shape" fill="#00AAF3" fill-rule="nonzero"></path>
        <path d="M20.7994678,0 C32.2866967,0 41.5989357,9.31223894 41.5989357,20.7994678 C41.5989357,25.8228879 39.8181053,30.4303727 36.8533198,34.0250471 L49.4142136,46.5857864 C50.1952621,47.366835 50.1952621,48.633165 49.4142136,49.4142136 C48.6742728,50.1541543 47.4987886,50.1930986 46.7130012,49.5310463 L46.5857864,49.4142136 L34.0250471,36.8533198 C30.4303727,39.8181053 25.8228879,41.5989357 20.7994678,41.5989357 C9.31223894,41.5989357 0,32.2866967 0,20.7994678 C0,9.31223894 9.31223894,0 20.7994678,0 Z M20.7994678,4 C11.5213779,4 4,11.5213779 4,20.7994678 C4,30.0775577 11.5213779,37.5989357 20.7994678,37.5989357 C24.6149167,37.5989357 28.2250911,36.3275739 31.1569841,34.0272898 L31.4799346,33.7674808 L32.733,32.733 L33.7674808,31.4799346 C36.1436488,28.5989336 37.4998737,25.0221324 37.593716,21.2225378 L37.5989357,20.7994678 C37.5989357,11.5213779 30.0775577,4 20.7994678,4 Z" id="Path" fill="#2B2C43" fill-rule="nonzero"></path>
    </g>
</svg>
