<?xml version="1.0" encoding="UTF-8"?>
<!--suppress XmlDefaultAttributeValue, XmlDefaultAttributeValue -->
<svg width="50px" height="50px" viewBox="0 0 50 50" version="1.1" xmlns="http://www.w3.org/2000/svg">
    <title>icons/select</title>
    <g id="icons/select" stroke="none" stroke-width="1" fill="none" fill-rule="evenodd">
        <path d="M21.5095042,1.1565186 C23.4346249,-0.334105375 26.3649484,-0.38379284 28.3570826,1.00745621 L28.5597391,1.1565186 L44.2936015,13.3392731 C45.1669651,14.0155199 45.3267599,15.2717274 44.650513,16.145091 C44.0080785,16.9747864 42.8422296,17.1604859 41.9784506,16.5971845 L41.8446951,16.5020025 L26.1108327,4.31924804 C25.6003604,3.92398856 24.6560031,3.89575574 24.0835473,4.23454958 L23.9584106,4.31924804 L8.22454818,16.5020025 C7.35118456,17.1782493 6.09497709,17.0184546 5.41873027,16.145091 C4.77629578,15.3153955 4.88838881,14.1401835 5.65000433,13.4449395 L5.77564179,13.3392731 L21.5095042,1.1565186 Z"
              id="Path" fill="#2B2C43" fill-rule="nonzero"></path>
        <path d="M21.5095042,34.2134465 C23.4346249,32.7228225 26.3649484,32.6731351 28.3570826,34.0643841 L28.5597391,34.2134465 L44.2936015,46.396201 C45.1669651,47.0724478 45.3267599,48.3286553 44.650513,49.2020189 C44.0080785,50.0317143 42.8422296,50.2174139 41.9784506,49.6541125 L41.8446951,49.5589304 L26.1108327,37.376176 C25.6003604,36.9809165 24.6560031,36.9526837 24.0835473,37.2914775 L23.9584106,37.376176 L8.22454818,49.5589304 C7.35118456,50.2351773 6.09497709,50.0753825 5.41873027,49.2020189 C4.77629578,48.3723235 4.88838881,47.1971115 5.65000433,46.5018674 L5.77564179,46.396201 L21.5095042,34.2134465 Z"
              id="Path-Copy" fill="#2B2C43" fill-rule="nonzero"
              transform="translate(25.034622, 41.517294) rotate(-180.000000) translate(-25.034622, -41.517294) "></path>
        <circle id="Oval" fill="#00AAF3" cx="25" cy="25" r="4"></circle>
    </g>
</svg>
