<?xml version="1.0" encoding="UTF-8"?>
<!--suppress XmlDefaultAttributeValue -->
<svg width="50px" height="57px" viewBox="0 0 50 57" version="1.1" xmlns="http://www.w3.org/2000/svg" xmlns:xlink="http://www.w3.org/1999/xlink">
    <title>icons/shield-warning</title>
    <g id="icons/shield-warning" stroke="none" stroke-width="1" fill="none" fill-rule="evenodd">
        <path d="M25,0 C42.7083333,0 50,4.14035088 50,9.31578947 L50,26.9122807 C50,42.2679776 39.901549,48.596734 36.5669581,51.3222711 L36.4583333,51.4117953 C33.2407744,54.0873319 26.0416667,57 25,57 C23.9795918,57 17.0505022,54.2050032 13.7435488,51.5758731 L13.0776611,51.0375058 C9.43644147,48.164787 0,41.7561211 0,26.9122807 L0,9.31578947 C0,4.19262803 7.14510424,0.0837490625 24.4665691,0.00126412472 L25,0 Z M25.6268417,4.00182025 L25,4 C17.0055835,4 11.0776106,4.87807085 7.39796117,6.41497955 C4.9462593,7.43900154 4.06325582,8.40211753 4.00331131,9.23606039 L4,9.32818566 L4,26.9657111 C4,33.924648 6.24047913,39.0915709 10.1698391,43.3173879 C11.1365695,44.3570549 12.1635934,45.2964431 13.3599068,46.2719209 L14.0957985,46.8569903 C14.7813587,47.3968634 15.6737067,48.093658 16.0190855,48.3739169 L16.0991521,48.439593 C17.2231243,49.3764031 19.3458026,50.5843568 21.745273,51.6801747 C22.7717099,52.1489398 23.7758373,52.5629329 24.5815972,52.8546695 L24.8476731,52.9489956 L25,53 L25.4184028,52.8546695 C26.2241627,52.5629329 27.2282901,52.1489398 28.254727,51.6801747 C30.5279095,50.6420314 32.5526691,49.5032455 33.7151843,48.5897078 L34.3702578,48.0633011 C35.0647663,47.5139845 36.2361051,46.6013342 36.6400932,46.2719209 C37.8364066,45.2964431 38.8634305,44.3570549 39.8301609,43.3173879 C43.6636828,39.1946396 45.8897036,34.1761332 45.9960095,27.4717159 L46,26.9657111 L46,9.32818566 C46,8.47337591 45.1445445,7.47692828 42.6020388,6.41497955 C39.0192223,4.91851582 33.3048581,4.04667051 25.6268417,4.00182025 Z" id="Path-16" fill="#2B2C43" fill-rule="nonzero"></path>
        <path d="M25,40 C26.1045695,40 27,40.8954305 27,42 C27,43.1045695 26.1045695,44 25,44 C23.8954305,44 23,43.1045695 23,42 C23,40.8954305 23.8954305,40 25,40 Z M25,9 C26.0543618,9 26.9181651,9.81587779 26.9945143,10.8507377 L27,11 L27,34 C27,35.1045695 26.1045695,36 25,36 C23.9456382,36 23.0818349,35.1841222 23.0054857,34.1492623 L23,34 L23,11 C23,9.8954305 23.8954305,9 25,9 Z" id="Combined-Shape" fill="#00AAF3"></path>
    </g>
</svg>
