<?xml version="1.0" encoding="UTF-8"?>
<!--suppress XmlDefaultAttributeValue, XmlDefaultAttributeValue -->
<svg width="50px" height="57px" viewBox="0 0 50 57" version="1.1" xmlns="http://www.w3.org/2000/svg" xmlns:xlink="http://www.w3.org/1999/xlink">
    <title>icons/shield-checked</title>
    <g id="icons/shield-checked" stroke="none" stroke-width="1" fill="none" fill-rule="evenodd">
        <path d="M25,0 C42.7083333,0 50,4.14035088 50,9.31578947 L50,26.9122807 C50,42.2679776 39.901549,48.596734 36.5669581,51.3222711 L36.4583333,51.4117953 C33.2407744,54.0873319 26.0416667,57 25,57 C23.9795918,57 17.0505022,54.2050032 13.7435488,51.5758731 L13.0776611,51.0375058 C9.43644147,48.164787 0,41.7561211 0,26.9122807 L0,9.31578947 C0,4.19262803 7.14510424,0.0837490625 24.4665691,0.00126412472 L25,0 Z M25.6268417,4.00181602 L25,4 C17.0055835,4 11.0776106,4.87602799 7.39796117,6.40936102 C4.9462593,7.43100059 4.06325582,8.39187587 4.00331131,9.22387853 L4,9.31578947 L4,26.9122807 C4,33.8550274 6.24047913,39.0099293 10.1698391,43.2259148 C11.1365695,44.263163 12.1635934,45.2003656 13.3599068,46.173574 L14.0957985,46.7572822 C14.7813587,47.2958993 15.6737067,47.9910728 16.0190855,48.2706797 L16.0991521,48.3362029 C17.2231243,49.2708335 19.3458026,50.4759768 21.745273,51.5692453 C22.7717099,52.0369198 23.7758373,52.4499497 24.5815972,52.7410076 L24.8476731,52.8351143 L25,52.886 L25.4184028,52.7410076 C26.2241627,52.4499497 27.2282901,52.0369198 28.254727,51.5692453 C30.5279095,50.5335173 32.5526691,49.3973808 33.7151843,48.4859685 L34.3702578,47.9607865 C35.0647663,47.4127478 36.2361051,46.5022208 36.6400932,46.173574 C37.8364066,45.2003656 38.8634305,44.263163 39.8301609,43.2259148 C43.6636828,39.1127582 45.8897036,34.1059275 45.9960095,27.4171082 L46,26.9122807 L46,9.31578947 C46,8.46296847 45.1445445,7.4688391 42.6020388,6.40936102 C39.0192223,4.91637886 33.3048581,4.04656193 25.6268417,4.00181602 Z" id="Path-16" fill="#2B2C43" fill-rule="nonzero"></path>
        <path d="M32.5857864,19.5857864 C33.366835,18.8047379 34.633165,18.8047379 35.4142136,19.5857864 C36.0896381,20.261211 36.1865708,21.3095611 35.6425487,22.1321181 L35.5398786,22.2748095 L35.4142136,22.4142136 L24.4142136,33.4142136 C23.738789,34.0896381 22.6904389,34.1865708 21.8678819,33.6425487 L21.7251905,33.5398786 L21.5857864,33.4142136 L16.5857864,28.4142136 C15.8047379,27.633165 15.8047379,26.366835 16.5857864,25.5857864 C17.261211,24.9103619 18.3095611,24.8134292 19.1321181,25.3574513 L19.2748095,25.4601214 L19.4141488,25.5857217 L22.999,29.17 L32.5857864,19.5857864 Z" id="Path" fill="#00AAF3" fill-rule="nonzero"></path>
    </g>
</svg>
