<svg id="Layer_1" data-name="Layer 1" xmlns="http://www.w3.org/2000/svg" viewBox="0 0 150 150"><defs><style>.cls-1{fill:#fff;}</style></defs><path class="cls-1" d="M122.11,63.15h27.6A75.82,75.82,0,0,0,85.79.13V27.62A48.71,48.71,0,0,1,122.11,63.15Z"/><path class="cls-1" d="M64.21,27.62V.13a75.82,75.82,0,0,0-63.92,63h27.6A48.73,48.73,0,0,1,64.21,27.62Z"/><path class="cls-1" d="M85.79,122.38v27.49A75.8,75.8,0,0,0,150,84.73H122.65A48.76,48.76,0,0,1,85.79,122.38Z"/><path class="cls-1" d="M27.35,84.73H0a75.8,75.8,0,0,0,64.21,65.14V122.38A48.76,48.76,0,0,1,27.35,84.73Z"/></svg>