<svg id="Layer_1" data-name="Layer 1" xmlns="http://www.w3.org/2000/svg" viewBox="0 0 620 225"><defs><style>.cls-1{fill:#fff;}.cls-2{fill:#00aaf3;}.cls-3{fill:#f38000;}.cls-4{fill:#e83641;}.cls-5{fill:none;}</style></defs><path class="cls-1" d="M309.22,121.77a45.63,45.63,0,0,1-37.8-20.08H243.05a70.89,70.89,0,0,0,132.33,0H347A45.63,45.63,0,0,1,309.22,121.77Z"/><path class="cls-1" d="M379.87,82.92c.22-2.24.35-4.5.35-6.79a71,71,0,1,0-142,0c0,2.29.13,4.55.34,6.79Zm-112.47-25a45.6,45.6,0,0,1,83.63,0Z"/><path class="cls-1" d="M148,5.13A70.22,70.22,0,0,0,77.9,75.26v71.42h27.15V75.26a43,43,0,0,1,86,0v71.42h27.15V75.26A70.22,70.22,0,0,0,148,5.13Z"/><path class="cls-2" d="M517.65,64.89h26.17A71.88,71.88,0,0,0,483.2,5.13V31.19A46.24,46.24,0,0,1,517.65,64.89Z"/><path class="cls-1" d="M462.74,31.19V5.13a71.9,71.9,0,0,0-60.63,59.76h26.18A46.24,46.24,0,0,1,462.74,31.19Z"/><path class="cls-3" d="M483.2,121.06v26.07a71.88,71.88,0,0,0,60.9-61.77H518.16A46.23,46.23,0,0,1,483.2,121.06Z"/><path class="cls-4" d="M427.78,85.36H401.84a71.88,71.88,0,0,0,60.9,61.77V121.06A46.24,46.24,0,0,1,427.78,85.36Z"/><path class="cls-1" d="M42,206.9v12.65H35.56V187.79H47.25q5.51,0,8.49,2.75a8.9,8.9,0,0,1,3,6.8,9.57,9.57,0,0,1-1.82,5.6,9.36,9.36,0,0,1-5.73,3.55l8.1,13.06h-7.6l-7.6-12.65Zm0-14.2V202h5.28a5.07,5.07,0,0,0,3.69-1.25,5.17,5.17,0,0,0,0-6.79,5.07,5.07,0,0,0-3.69-1.25Z"/><path class="cls-1" d="M85.71,187.7v4.91H73.78v8.33H84.34v4.92H73.78v8.78H85.71v4.91H67.37V187.7Zm-14.84-6.24L81.34,176v5.19L70.87,186Z"/><path class="cls-1" d="M104.82,192.48a4.83,4.83,0,0,0-3.12,1,3.32,3.32,0,0,0-1.2,2.71,3.89,3.89,0,0,0,.88,2.71,5.81,5.81,0,0,0,2.35,1.5,28.73,28.73,0,0,0,3.18.93c1.16.28,2.31.61,3.46,1a16.92,16.92,0,0,1,3.19,1.45,6.31,6.31,0,0,1,2.34,2.53,8.48,8.48,0,0,1,.89,4,8.78,8.78,0,0,1-3.12,6.73,11.88,11.88,0,0,1-8.28,2.82A13.4,13.4,0,0,1,97,217.44a8.14,8.14,0,0,1-3.19-6.85h6.83q.36,4.18,4.78,4.19a5,5,0,0,0,3.46-1.14,3.86,3.86,0,0,0,1.27-3,3.39,3.39,0,0,0-1.68-3,12.72,12.72,0,0,0-4.08-1.64q-2.39-.54-4.8-1.32A8.89,8.89,0,0,1,95.54,202a7.48,7.48,0,0,1-1.69-5.12A8.52,8.52,0,0,1,97,189.93a12.29,12.29,0,0,1,8.08-2.6,12.85,12.85,0,0,1,7.94,2.26,8.69,8.69,0,0,1,3.28,6.84h-7a4.37,4.37,0,0,0-1.36-2.89A4.47,4.47,0,0,0,104.82,192.48Z"/><path class="cls-1" d="M143.55,187.7v4.91H131.63v8.33h10.55v4.92H131.63v8.78h11.92v4.91H125.21V187.7Z"/><path class="cls-1" d="M173.22,219.55l-2.05-6H158.79l-2,6H150l11.24-31.85h7.6L180,219.55Zm-12.74-10.87h9.06L165,195.43Z"/><path class="cls-1" d="M186.65,207.36V187.79h6.41v19.57a6.81,6.81,0,0,0,1.66,5,6.41,6.41,0,0,0,4.76,1.68,6.48,6.48,0,0,0,4.78-1.68,6.74,6.74,0,0,0,1.68-5V187.79h6.37v19.57q0,6-3.77,9.26a13.62,13.62,0,0,1-9.2,3.25,13.09,13.09,0,0,1-9.05-3.23Q186.65,213.42,186.65,207.36Z"/><path class="cls-1" d="M247.27,187.79l-9.93,15.88,9.93,15.88H240l-6.55-10.46-6.1,10.46h-7.24l10-15.88-10-15.88h7.24l6.55,10.46,6.15-10.46Z"/><path class="cls-1" d="M281.94,187.79q7.65,0,12.36,4.37a16.48,16.48,0,0,1,0,23.07q-4.71,4.32-12.36,4.32H271.16V187.79Zm-4.37,26.89h4.37q5,0,7.79-3a13,13,0,0,0,0-16c-1.85-2-4.45-3-7.79-3h-4.37Z"/><path class="cls-1" d="M304.47,182.33h5.28a17.71,17.71,0,0,1,.77,5.21,6.31,6.31,0,0,1-1.43,4.32,5.39,5.39,0,0,1-4.26,1.62v-2.55c1.52,0,2.28-.93,2.28-2.78v-.86h-2.64Z"/><path class="cls-1" d="M338.6,219.55l-2.05-6H324.18l-2.05,6h-6.78l11.24-31.85h7.6l11.19,31.85Zm-12.74-10.87h9.06l-4.55-13.25Z"/><path class="cls-1" d="M352.12,219.55V187.79h19.66v4.91H358.54V201h10.1V206h-10.1v13.6Z"/><path class="cls-1" d="M379.11,219.55V187.79h19.66v4.91H385.52V201h10.1V206h-10.1v13.6Z"/><path class="cls-1" d="M406.09,219.55V187.79h6.42v31.76Z"/><path class="cls-1" d="M424.52,215.23a16.8,16.8,0,0,1,0-23.3,15.9,15.9,0,0,1,11.53-4.6A16.45,16.45,0,0,1,445.3,190a14.54,14.54,0,0,1,5.76,7.42h-7.7q-2.13-4.19-7.28-4.19a9.27,9.27,0,0,0-7,2.85,11.89,11.89,0,0,0,0,15.11,9.3,9.3,0,0,0,7,2.84,7.55,7.55,0,0,0,7.28-4.19h7.7a14.41,14.41,0,0,1-5.76,7.4,16.52,16.52,0,0,1-9.22,2.62A15.9,15.9,0,0,1,424.52,215.23Z"/><path class="cls-1" d="M479,187.79h6.42v31.76H479V206H465.3v13.6h-6.42V187.79h6.42V201H479Z"/><path class="cls-1" d="M515.32,219.55l-2.05-6H500.89l-2.05,6h-6.78L503.3,187.7h7.6l11.2,31.85Zm-12.75-10.87h9.06l-4.55-13.25Z"/><path class="cls-1" d="M531.74,215.23a16.8,16.8,0,0,1,0-23.3,15.9,15.9,0,0,1,11.53-4.6,16.45,16.45,0,0,1,9.22,2.64,14.54,14.54,0,0,1,5.76,7.42h-7.7q-2.13-4.19-7.28-4.19a9.27,9.27,0,0,0-7,2.85,11.89,11.89,0,0,0,0,15.11,8.85,8.85,0,0,0,6.65,2.84,9.21,9.21,0,0,0,6.19-1.93,8.43,8.43,0,0,0,2.79-5.21H541.35V202h17.43v4.87a16.08,16.08,0,0,1-27,8.37Z"/><path class="cls-1" d="M584.44,187.7v4.91H572.52v8.33h10.56v4.92H572.52v8.78h11.92v4.91H566.1V187.7Z"/><rect class="cls-5" width="620" height="225"/></svg>