<!--
  - Copyright 2020 (c) Neo-OOH - All Rights Reserved
  - Unauthorized copying of this file, via any medium is strictly prohibited
  - Proprietary and confidential
  - Written by Valentin Dufois <vdufois@neo-ooh.com>
  -
  - @neo/api - main.dark.en.svg
  -->

<svg id="Layer_1" data-name="Layer 1" xmlns="http://www.w3.org/2000/svg" viewBox="0 0 620 225">
    <defs>
        <style>.cls-1{fill:#2b2d43;}.cls-2{fill:#00aaf3;}.cls-3{fill:#f38000;}.cls-4{fill:#e83641;}.cls-5{fill:none;}</style>
    </defs>
    <path class="cls-1"
          d="M308.77,121.18A45.63,45.63,0,0,1,271,101.1H242.6a70.89,70.89,0,0,0,132.33,0H346.56A45.65,45.65,0,0,1,308.77,121.18Z"/>
    <path class="cls-1"
          d="M379.42,82.33c.22-2.24.35-4.5.35-6.79a71,71,0,0,0-142,0c0,2.29.13,4.55.34,6.79ZM267,57.3a45.6,45.6,0,0,1,83.63,0Z"/>
    <path class="cls-1"
          d="M147.59,4.54A70.21,70.21,0,0,0,77.46,74.67v71.42h27.15V74.67a43,43,0,0,1,86,0v71.42h27.15V74.67A70.21,70.21,0,0,0,147.59,4.54Z"/>
    <path class="cls-2" d="M517.2,64.3h26.17A71.88,71.88,0,0,0,482.75,4.54V30.6A46.22,46.22,0,0,1,517.2,64.3Z"/>
    <path class="cls-1" d="M462.29,30.6V4.54A71.9,71.9,0,0,0,401.66,64.3h26.18A46.22,46.22,0,0,1,462.29,30.6Z"/>
    <path class="cls-3" d="M482.75,120.47v26.07a71.88,71.88,0,0,0,60.9-61.78H517.71A46.24,46.24,0,0,1,482.75,120.47Z"/>
    <path class="cls-4" d="M427.33,84.76H401.39a71.88,71.88,0,0,0,60.9,61.78V120.47A46.24,46.24,0,0,1,427.33,84.76Z"/>
    <path class="cls-1"
          d="M31.56,220.46a16,16,0,0,1-11.68-4.64,17,17,0,0,1,0-23.6,16.1,16.1,0,0,1,11.69-4.65,16,16,0,0,1,11.66,4.65,17.06,17.06,0,0,1,0,23.6A16,16,0,0,1,31.56,220.46Zm7.09-8.81a12.14,12.14,0,0,0,0-15.29,9.34,9.34,0,0,0-7.09-2.85,9.37,9.37,0,0,0-7.1,2.87,12,12,0,0,0,0,15.27,9.34,9.34,0,0,0,7.1,2.88A9.29,9.29,0,0,0,38.65,211.65Z"/>
    <path class="cls-1"
          d="M53,207.81V188h6.49v19.78a6.87,6.87,0,0,0,1.68,5,6.46,6.46,0,0,0,4.8,1.7,6.54,6.54,0,0,0,4.83-1.7,6.8,6.8,0,0,0,1.7-5V188h6.44v19.78q0,6.08-3.81,9.36a13.74,13.74,0,0,1-9.3,3.29,13.25,13.25,0,0,1-9.15-3.26Q53,213.93,53,207.81Z"/>
    <path class="cls-1" d="M83.82,193v-5H107.6v5H98.91v27.14H92.47V193Z"/>
    <path class="cls-1"
          d="M141,220.46a16,16,0,0,1-11.69-4.64,17,17,0,0,1,0-23.6,17,17,0,0,1,23.34,0,17.06,17.06,0,0,1,0,23.6A16,16,0,0,1,141,220.46Zm7.08-8.81a12.1,12.1,0,0,0,0-15.29,10.23,10.23,0,0,0-14.19,0,12,12,0,0,0,0,15.27,10.18,10.18,0,0,0,14.19,0Z"/>
    <path class="cls-1" d="M162.53,220.14V188H182.4v5H169v8.42h10.21v5H169v13.75Z"/>
    <path class="cls-1" d="M221.59,188h6.48v32.11h-6.48V206.39h-13.8v13.75H201.3V188h6.49v13.39h13.8Z"/>
    <path class="cls-1"
          d="M249.6,220.46a16,16,0,0,1-11.68-4.64,17,17,0,0,1,0-23.6,17,17,0,0,1,23.35,0,17.08,17.08,0,0,1,0,23.6A16,16,0,0,1,249.6,220.46Zm7.09-8.81a12.14,12.14,0,0,0,0-15.29,10.23,10.23,0,0,0-14.19,0,12,12,0,0,0,0,15.27,10.18,10.18,0,0,0,14.19,0Z"/>
    <path class="cls-1" d="M306.14,188v32.11H299.7V199.86L291,220.14h-4.65L277.62,200v20.19h-6.49V188h7.22l10.31,23.79L299,188Z"/>
    <path class="cls-1" d="M331.57,187.94v5H319.52v8.42h10.67v5H319.52v8.87h12.05v5H313v-32.2Z"/>
    <path class="cls-1" d="M373,187.94h6.49v32.2H373l-14.54-22.26v22.26H352v-32.2h6.48L373,210.21Z"/>
    <path class="cls-1" d="M404.94,187.94v5H392.89v8.42h10.67v5H392.89v8.87h12.05v5H386.41v-32.2Z"/>
    <path class="cls-1" d="M409.68,193v-5h23.78v5h-8.69v27.14h-6.44V193Z"/>
    <path class="cls-1"
          d="M474.36,188h6.94L472,220.14h-7.36l-6.21-22.4-6.39,22.4h-7.36L435.58,188h6.9l6.16,24.8,6.49-24.8h7.31l6.12,24.57Z"/>
    <path class="cls-1"
          d="M500,220.46a16,16,0,0,1-11.69-4.64,17,17,0,0,1,0-23.6,17,17,0,0,1,23.34,0,17.06,17.06,0,0,1,0,23.6A16,16,0,0,1,500,220.46Zm7.08-8.81a12.1,12.1,0,0,0,0-15.29,10.23,10.23,0,0,0-14.19,0,12,12,0,0,0,0,15.27,10.18,10.18,0,0,0,14.19,0Z"/>
    <path class="cls-1"
          d="M528,207.35v12.79h-6.48V188h11.82q5.56,0,8.58,2.79a9,9,0,0,1,3,6.87,9.63,9.63,0,0,1-1.84,5.66,9.48,9.48,0,0,1-5.8,3.59l8.19,13.2h-7.68l-7.68-12.79ZM528,193v9.39h5.34a5.11,5.11,0,0,0,3.72-1.27,5.19,5.19,0,0,0,0-6.85,5.07,5.07,0,0,0-3.72-1.27Z"/>
    <path class="cls-1" d="M557.84,220.14h-6.48V188h6.48v14.36L569.44,188h8.46L564,204.13l13.94,16h-8.42l-11.64-14.26Z"/>
    <path class="cls-1"
          d="M592.76,192.77a4.83,4.83,0,0,0-3.15,1,3.31,3.31,0,0,0-1.22,2.74,3.89,3.89,0,0,0,.9,2.73,5.62,5.62,0,0,0,2.37,1.52,28.78,28.78,0,0,0,3.22.95,35.26,35.26,0,0,1,3.49,1,17.25,17.25,0,0,1,3.22,1.47,6.37,6.37,0,0,1,2.37,2.55,8.53,8.53,0,0,1,.9,4.07,8.88,8.88,0,0,1-3.15,6.81,12,12,0,0,1-8.38,2.85,13.54,13.54,0,0,1-8.44-2.46,8.23,8.23,0,0,1-3.22-6.92h6.9q.38,4.23,4.83,4.23a5,5,0,0,0,3.5-1.15,3.88,3.88,0,0,0,1.29-3.06,3.43,3.43,0,0,0-1.7-3,12.74,12.74,0,0,0-4.12-1.66c-1.61-.36-3.23-.81-4.86-1.33a9,9,0,0,1-4.13-2.74,7.57,7.57,0,0,1-1.71-5.17,8.58,8.58,0,0,1,3.18-7,12.36,12.36,0,0,1,8.16-2.63,13.05,13.05,0,0,1,8,2.28,8.8,8.8,0,0,1,3.31,6.92h-7.08a4.44,4.44,0,0,0-1.38-2.92A4.49,4.49,0,0,0,592.76,192.77Z"/>
    <rect class="cls-5" width="620" height="225"/>
</svg>
